# Rhino

g Cube_Cube
v -1 -0.916796 -0.916796
v -1 -0.916796 0.916796
v -1 0.916795 -0.916796
v -1 0.916796 0.916796
v -0.916796 -1 -0.916796
v -0.916796 -0.916796 -1
v -0.916796 0.916795 -1
v -0.916796 0.916796 1
v -0.916796 1 -0.916796
v -0.916796 1 0.916796
v -0.916795 -1 0.916796
v -0.916795 -0.916796 1
v 0.916795 0.916796 -1
v 0.916795 1.000001 -0.916796
v 0.916796 -1 -0.916796
v 0.916796 -1 0.916796
v 0.916796 -0.916796 1
v 0.916796 -0.916795 -1
v 0.916796 0.916796 1
v 0.916796 1 0.916796
v 0.999999 0.916796 -0.916796
v 1 -0.916796 0.916796
v 1 -0.916795 -0.916796
v 1 0.916796 0.916796
vn 0.367001 -0.367001 0.85476345
vn 0.367001 0.367001 0.85476345
vn -0.36700031 0.36700085 0.85476381
vn -0.36699882 -0.36700147 0.85476416
vn 0.3670015 -0.36699876 -0.85476416
vn -0.36700082 -0.36700031 -0.85476381
vn -0.36700141 0.36699811 -0.85476452
vn 0.36700121 0.36699826 -0.85476452
vn 0.85476387 -0.36700025 0.36700079
vn 0.85476416 -0.36699867 -0.36700156
vn 0.8547641 0.36699897 -0.36700153
vn 0.85476381 0.36700037 0.36700079
vn 0.36700165 0.85476309 0.36700115
vn 0.3670027 0.85476166 -0.36700344
vn -0.36700299 0.85476154 -0.36700338
vn -0.36700177 0.85476303 0.36700112
vn -0.85476345 0.36700034 0.36700156
vn -0.85476416 0.36699882 -0.36700147
vn -0.85476309 -0.36700171 -0.36700106
vn -0.8547619 -0.36700279 0.36700279
vn 0.36700279 -0.8547619 -0.36700279
vn 0.36700171 -0.85476309 0.36700106
vn -0.36699882 -0.85476416 0.36700147
vn -0.36700034 -0.85476345 -0.36700156
f 17//1 19//2 8//3 12//4
f 18//5 6//6 7//7 13//8
f 22//9 23//10 21//11 24//12
f 20//13 14//14 9//15 10//16
f 4//17 3//18 1//19 2//20
f 15//21 16//22 11//23 5//24
f 19//2 17//1 22//9 24//12
f 19//2 20//13 10//16 8//3
f 8//3 4//17 2//20 12//4
f 16//22 17//1 12//4 11//23
f 18//5 15//21 5//24 6//6
f 6//6 1//19 3//18 7//7
f 7//7 9//15 14//14 13//8
f 18//5 13//8 21//11 23//10
f 22//9 16//22 15//21 23//10
f 21//11 14//14 20//13 24//12
f 9//15 3//18 4//17 10//16
f 1//19 5//24 11//23 2//20
f 17//1 16//22 22//9
f 19//2 24//12 20//13
f 8//3 10//16 4//17
f 12//4 2//20 11//23
f 18//5 23//10 15//21
f 6//6 5//24 1//19
f 7//7 3//18 9//15
f 13//8 14//14 21//11
