solid OBJECT
  facet normal -0.96758568143730084 -0.093378672176379365 0.23464520591755167
    outer loop
      vertex 0.54757052659988403 -0.035096529871225357 -1.1688438653945923
      vertex 0.90895640850067139 0.34273222088813782 0.47173067927360535
      vertex 0.54466402530670166 -0.0049794916994869709 -1.1688438653945923
    endloop
  endfacet
  facet normal -0.96758034496053591 -0.093425663196330389 0.23464850628626691
    outer loop
      vertex 0.52634787559509277 0.18481126427650452 -1.1688438653945923
      vertex 0.52644592523574829 0.18379579484462738 -1.1688438653945923
      vertex 0.90895640850067139 0.34273222088813782 0.47173067927360535
    endloop
  endfacet
  facet normal -0.96758573587735008 -0.093378208657779294 0.23464516588788098
    outer loop
      vertex 0.52907127141952515 0.15659193694591522 -1.1688438653945923
      vertex 0.90895640850067139 0.34273222088813782 0.47173067927360535
      vertex 0.52644592523574829 0.18379579484462738 -1.1688438653945923
    endloop
  endfacet
  facet normal -0.9675857827803902 -0.09337780923492027 0.23464513142988164
    outer loop
      vertex 0.90895640850067139 0.34273222088813782 0.47173067927360535
      vertex 0.52907127141952515 0.15659193694591522 -1.1688438653945923
      vertex 0.53244113922119141 0.12167318910360336 -1.1688438653945923
    endloop
  endfacet
  facet normal -0.96758564819906612 -0.093378909004689717 0.23464524873154133
    outer loop
      vertex 0.54466402530670166 -0.0049794916994869709 -1.1688438653945923
      vertex 0.90895640850067139 0.34273222088813782 0.47173067927360535
      vertex 0.53244113922119141 0.12167318910360336 -1.1688438653945923
    endloop
  endfacet
  facet normal -0.96758561884233429 -0.09337910496775996 0.23464529180215221
    outer loop
      vertex 0.56025683879852295 -0.16655091941356659 -1.1688438653945923
      vertex 0.90895640850067139 0.34273222088813782 0.47173067927360535
      vertex 0.54757052659988403 -0.035096529871225357 -1.1688438653945923
    endloop
  endfacet
  facet normal -0.9675857376075393 -0.093378377985390504 0.23464509136841438
    outer loop
      vertex 0.56281197071075439 -0.19302716851234436 -1.1688438653945923
      vertex 0.90895640850067139 0.34273222088813782 0.47173067927360535
      vertex 0.56025683879852295 -0.16655091941356659 -1.1688438653945923
    endloop
  endfacet
  facet normal -0.96758567869989875 -0.093378730411243643 0.23464519403056303
    outer loop
      vertex 0.90895640850067139 0.34273222088813782 0.47173067927360535
      vertex 0.56281197071075439 -0.19302716851234436 -1.1688438653945923
      vertex 0.57584959268569946 -0.3281223475933075 -1.1688438653945923
    endloop
  endfacet
  facet normal -0.96758567441395316 -0.093378753393593708 0.23464520255814678
    outer loop
      vertex 0.58512771129608154 -0.42426171898841858 -1.1688438653945923
      vertex 0.90895640850067139 0.34273222088813782 0.47173067927360535
      vertex 0.57584959268569946 -0.3281223475933075 -1.1688438653945923
    endloop
  endfacet
  facet normal -0.96758570660257226 -0.093378592687124645 0.23464513377901716
    outer loop
      vertex 0.90895640850067139 0.34273222088813782 0.47173067927360535
      vertex 0.58512771129608154 -0.42426171898841858 -1.1688438653945923
      vertex 0.58728200197219849 -0.44658440351486206 -1.1688438653945923
    endloop
  endfacet
  facet normal -0.967584567571808 -0.093396996168222515 0.2346425061740324
    outer loop
      vertex 0.58760344982147217 -0.44991457462310791 -1.1688438653945923
      vertex 0.77226465940475464 -0.60144078731536865 -0.46767830848693848
      vertex 0.58728200197219849 -0.44658440351486206 -1.1688438653945923
    endloop
  endfacet
  facet normal -0.96758521262142383 -0.093381020033436624 0.23464620477192644
    outer loop
      vertex 0.77226465940475464 -0.60144078731536865 -0.46767830848693848
      vertex 0.90895640850067139 0.34273222088813782 0.47173067927360535
      vertex 0.58728200197219849 -0.44658440351486206 -1.1688438653945923
    endloop
  endfacet
  facet normal -0.96758533127115376 -0.09337857665554368 0.23464668787493301
    outer loop
      vertex 0.77226465940475464 -0.60144078731536865 -0.46767830848693848
      vertex 0.58760344982147217 -0.44991457462310791 -1.1688438653945923
      vertex 0.58919960260391235 -0.46645385026931763 -1.1688438653945923
    endloop
  endfacet
  facet normal -0.20248593971865933 0.95046071855467706 0.23584712569963345
    outer loop
      vertex 0.58919960260391235 -0.46645385026931763 -1.1688438653945923
      vertex 0.57708603143692017 -0.46903452277183533 -1.1688438653945923
      vertex 0.77226465940475464 -0.60144078731536865 -0.46767830848693848
    endloop
  endfacet
  facet normal -0.20248508126850168 0.95046094989386232 0.23584693042425911
    outer loop
      vertex 0.57708603143692017 -0.46903452277183533 -1.1688438653945923
      vertex 0.29003298282623291 -1.0063037872314453 0.74989849328994751
      vertex 0.77226465940475464 -0.60144078731536865 -0.46767830848693848
    endloop
  endfacet
  facet normal -0.20248541807299408 0.95046089449381022 0.23584686452406098
    outer loop
      vertex 0.29003298282623291 -1.0063037872314453 0.74989849328994751
      vertex 0.57708603143692017 -0.46903452277183533 -1.1688438653945923
      vertex -0.37715503573417664 -0.87138831615447998 -0.36662143468856812
    endloop
  endfacet
  facet normal -0.20248527150963885 0.95046088378986693 0.23584703349216155
    outer loop
      vertex 0.54750138521194458 -0.47533720731735229 -1.1688438653945923
      vertex -0.37715503573417664 -0.87138831615447998 -0.36662143468856812
      vertex 0.57708603143692017 -0.46903452277183533 -1.1688438653945923
    endloop
  endfacet
  facet normal -0.20248493353223262 0.95046102675645006 0.23584674750676987
    outer loop
      vertex -0.2538469135761261 -0.64605599641799927 -1.1688438653945923
      vertex -0.27799752354621887 -0.65120100975036621 -1.1688438653945923
      vertex -0.37715503573417664 -0.87138831615447998 -0.36662143468856812
    endloop
  endfacet
  facet normal -0.20248438480063835 0.95046111647487685 0.23584685705185404
    outer loop
      vertex -0.37715503573417664 -0.87138831615447998 -0.36662143468856812
      vertex -0.24514283239841461 -0.64420169591903687 -1.1688438653945923
      vertex -0.2538469135761261 -0.64605599641799927 -1.1688438653945923
    endloop
  endfacet
  facet normal -0.20248612988755105 0.95046083569221351 0.23584649036697788
    outer loop
      vertex -0.37715503573417664 -0.87138831615447998 -0.36662143468856812
      vertex -0.18526370823383331 -0.63144505023956299 -1.1688438653945923
      vertex -0.24514283239841461 -0.64420169591903687 -1.1688438653945923
    endloop
  endfacet
  facet normal -0.20248674903544367 0.95046084357325489 0.23584592703516061
    outer loop
      vertex -0.37715503573417664 -0.87138831615447998 -0.36662143468856812
      vertex 0.11142857372760773 -0.56823790073394775 -1.1688438653945923
      vertex 0.083544231951236725 -0.57417839765548706 -1.1688438653945923
    endloop
  endfacet
  facet normal -0.20248575891661785 0.95046088597614875 0.23584660621979642
    outer loop
      vertex -0.066857188940048218 -0.60621976852416992 -1.1688438653945923
      vertex -0.15968160331249237 -0.62599503993988037 -1.1688438653945923
      vertex -0.37715503573417664 -0.87138831615447998 -0.36662143468856812
    endloop
  endfacet
  facet normal -0.20248612700717006 0.95046083610430099 0.23584649117921863
    outer loop
      vertex -0.18526370823383331 -0.63144505023956299 -1.1688438653945923
      vertex -0.37715503573417664 -0.87138831615447998 -0.36662143468856812
      vertex -0.15968160331249237 -0.62599503993988037 -1.1688438653945923
    endloop
  endfacet
  facet normal -0.20248526428716551 0.95046093948816546 0.23584681522935702
    outer loop
      vertex -0.37715503573417664 -0.87138831615447998 -0.36662143468856812
      vertex 0.083544231951236725 -0.57417839765548706 -1.1688438653945923
      vertex -0.066857188940048218 -0.60621976852416992 -1.1688438653945923
    endloop
  endfacet
  facet normal -0.20248563424287214 0.95046090737013977 0.23584662704052467
    outer loop
      vertex -0.37715503573417664 -0.87138831615447998 -0.36662143468856812
      vertex 0.54750138521194458 -0.47533720731735229 -1.1688438653945923
      vertex 0.48011219501495361 -0.48969376087188721 -1.1688438653945923
    endloop
  endfacet
  facet normal -0.20248561819038949 0.95046091045887382 0.2358466283747655
    outer loop
      vertex 0.2897142767906189 -0.53025603294372559 -1.1688438653945923
      vertex -0.37715503573417664 -0.87138831615447998 -0.36662143468856812
      vertex 0.4060424268245697 -0.5054735541343689 -1.1688438653945923
    endloop
  endfacet
  facet normal -0.20248547295931224 0.95046091580696335 0.23584673150975052
    outer loop
      vertex -0.37715503573417664 -0.87138831615447998 -0.36662143468856812
      vertex 0.2512546181678772 -0.53844946622848511 -1.1688438653945923
      vertex 0.11142857372760773 -0.56823790073394775 -1.1688438653945923
    endloop
  endfacet
  facet normal -0.20248588586241117 0.95046090882039069 0.23584640516834576
    outer loop
      vertex -0.37715503573417664 -0.87138831615447998 -0.36662143468856812
      vertex 0.2897142767906189 -0.53025603294372559 -1.1688438653945923
      vertex 0.2512546181678772 -0.53844946622848511 -1.1688438653945923
    endloop
  endfacet
  facet normal -0.20248596203759953 0.95046091948292388 0.23584629679811153
    outer loop
      vertex 0.46799996495246887 -0.49227413535118103 -1.1688438653945923
      vertex 0.4060424268245697 -0.5054735541343689 -1.1688438653945923
      vertex -0.37715503573417664 -0.87138831615447998 -0.36662143468856812
    endloop
  endfacet
  facet normal -0.20248908079213634 0.9504610680422203 0.2358430204521593
    outer loop
      vertex -0.37715503573417664 -0.87138831615447998 -0.36662143468856812
      vertex 0.48011219501495361 -0.48969376087188721 -1.1688438653945923
      vertex 0.47437885403633118 -0.4909152090549469 -1.1688438653945923
    endloop
  endfacet
  facet normal -0.20248134879961105 0.95046071970412627 0.23585106251150198
    outer loop
      vertex 0.47437885403633118 -0.4909152090549469 -1.1688438653945923
      vertex 0.46799996495246887 -0.49227413535118103 -1.1688438653945923
      vertex -0.37715503573417664 -0.87138831615447998 -0.36662143468856812
    endloop
  endfacet
  facet normal -0.75291678558070441 -0.61481484301464273 0.23477440831508778
    outer loop
      vertex 0.89750540256500244 0.41799050569534302 0.63209021091461182
      vertex 0.075627520680427551 0.94661277532577515 -0.61932742595672607
      vertex 0.073667630553245544 0.73917347192764282 -1.1688438653945923
    endloop
  endfacet
  facet normal -0.75291182018200664 -0.61482018731417887 0.23477633675729637
    outer loop
      vertex 0.067939020693302155 0.74618881940841675 -1.1688438653945923
      vertex 0.070337750017642975 0.74325132369995117 -1.1688438653945923
      vertex 0.075627520680427551 0.94661277532577515 -0.61932742595672607
    endloop
  endfacet
  facet normal -0.75291674757527438 -0.61481486772216465 0.23477446549496736
    outer loop
      vertex 0.067939020693302155 0.74618881940841675 -1.1688438653945923
      vertex 0.075627520680427551 0.94661277532577515 -0.61932742595672607
      vertex 0.060962013900279999 0.75473302602767944 -1.1688438653945923
    endloop
  endfacet
  facet normal -0.75291689571852671 -0.6148147249992425 0.23477436415776576
    outer loop
      vertex 0.075627520680427551 0.94661277532577515 -0.61932742595672607
      vertex 0.070337750017642975 0.74325132369995117 -1.1688438653945923
      vertex 0.073667630553245544 0.73917347192764282 -1.1688438653945923
    endloop
  endfacet
  facet normal -0.75291654392450791 -0.61481520587729011 0.23477423305558878
    outer loop
      vertex 0.89750540256500244 0.41799050569534302 0.63209021091461182
      vertex 0.073667630553245544 0.73917347192764282 -1.1688438653945923
      vertex 0.90895640850067139 0.34273222088813782 0.47173067927360535
    endloop
  endfacet
  facet normal -0.75291073234165229 -0.61482429099713787 0.23476907872337802
    outer loop
      vertex 0.075165443122386932 0.73733925819396973 -1.1688438653945923
      vertex 0.90895640850067139 0.34273222088813782 0.47173067927360535
      vertex 0.073667630553245544 0.73917347192764282 -1.1688438653945923
    endloop
  endfacet
  facet normal -0.75291632124431351 -0.61481551739532903 0.23477413139833728
    outer loop
      vertex 0.46799996495246887 0.25626537203788757 -1.1688438653945923
      vertex 0.52634787559509277 0.18481126427650452 -1.1688438653945923
      vertex 0.90895640850067139 0.34273222088813782 0.47173067927360535
    endloop
  endfacet
  facet normal -0.75291729813909236 -0.61481424638151994 0.23477432698072609
    outer loop
      vertex 0.90895640850067139 0.34273222088813782 0.47173067927360535
      vertex 0.45110440254211426 0.27695611119270325 -1.1688438653945923
      vertex 0.46799996495246887 0.25626537203788757 -1.1688438653945923
    endloop
  endfacet
  facet normal -0.75291589737980358 -0.61481608294406187 0.23477400969035198
    outer loop
      vertex 0.90895640850067139 0.34273222088813782 0.47173067927360535
      vertex 0.42995855212211609 0.30285173654556274 -1.1688438653945923
      vertex 0.45110440254211426 0.27695611119270325 -1.1688438653945923
    endloop
  endfacet
  facet normal -0.75291504015641608 -0.61481734938237242 0.23477344229000063
    outer loop
      vertex 0.90895640850067139 0.34273222088813782 0.47173067927360535
      vertex 0.28551968932151794 0.47973477840423584 -1.1688438653945923
      vertex 0.2897142767906189 0.47459802031517029 -1.1688438653945923
    endloop
  endfacet
  facet normal -0.75291647570330678 -0.61481532214877499 0.23477414735360003
    outer loop
      vertex 0.30867058038711548 0.45138370990753174 -1.1688438653945923
      vertex 0.41745543479919434 0.31816336512565613 -1.1688438653945923
      vertex 0.90895640850067139 0.34273222088813782 0.47173067927360535
    endloop
  endfacet
  facet normal -0.75291710898148501 -0.61481447899470643 0.23477432445101479
    outer loop
      vertex 0.42995855212211609 0.30285173654556274 -1.1688438653945923
      vertex 0.90895640850067139 0.34273222088813782 0.47173067927360535
      vertex 0.41745543479919434 0.31816336512565613 -1.1688438653945923
    endloop
  endfacet
  facet normal -0.75291648416772672 -0.61481531030075065 0.23477415123539674
    outer loop
      vertex 0.90895640850067139 0.34273222088813782 0.47173067927360535
      vertex 0.2897142767906189 0.47459802031517029 -1.1688438653945923
      vertex 0.30867058038711548 0.45138370990753174 -1.1688438653945923
    endloop
  endfacet
  facet normal -0.75291707641527927 -0.61481438053119442 0.23477468674095217
    outer loop
      vertex 0.075165443122386932 0.73733925819396973 -1.1688438653945923
      vertex 0.085770823061466217 0.72435164451599121 -1.1688438653945923
      vertex 0.90895640850067139 0.34273222088813782 0.47173067927360535
    endloop
  endfacet
  facet normal -0.75291645250609485 -0.61481535284955613 0.23477414134889929
    outer loop
      vertex 0.90895640850067139 0.34273222088813782 0.47173067927360535
      vertex 0.17140358686447144 0.61948388814926147 -1.1688438653945923
      vertex 0.26563441753387451 0.50408673286437988 -1.1688438653945923
    endloop
  endfacet
  facet normal -0.75291658391034344 -0.61481516520512836 0.23477421133201481
    outer loop
      vertex 0.90895640850067139 0.34273222088813782 0.47173067927360535
      vertex 0.26563441753387451 0.50408673286437988 -1.1688438653945923
      vertex 0.28551968932151794 0.47973477840423584 -1.1688438653945923
    endloop
  endfacet
  facet normal -0.75291606993940519 -0.61481592380434535 0.23477387304299832
    outer loop
      vertex 0.15358391404151917 0.64130622148513794 -1.1688438653945923
      vertex 0.17140358686447144 0.61948388814926147 -1.1688438653945923
      vertex 0.90895640850067139 0.34273222088813782 0.47173067927360535
    endloop
  endfacet
  facet normal -0.75291659581896486 -0.61481512751790379 0.2347742718347243
    outer loop
      vertex 0.085770823061466217 0.72435164451599121 -1.1688438653945923
      vertex 0.11142857372760773 0.69293057918548584 -1.1688438653945923
      vertex 0.90895640850067139 0.34273222088813782 0.47173067927360535
    endloop
  endfacet
  facet normal -0.7529164371780307 -0.61481537109688267 0.23477414272049416
    outer loop
      vertex 0.90895640850067139 0.34273222088813782 0.47173067927360535
      vertex 0.11142857372760773 0.69293057918548584 -1.1688438653945923
      vertex 0.15358391404151917 0.64130622148513794 -1.1688438653945923
    endloop
  endfacet
  facet normal 0.84946809171855719 0.47256550954053889 0.23470364365455432
    outer loop
      vertex -0.45772850513458252 -0.3281223475933075 -1.1688438653945923
      vertex -0.47230657935142517 -0.30191728472709656 -1.1688438653945923
      vertex -0.9175378680229187 0.12488292902708054 -0.41675195097923279
    endloop
  endfacet
  facet normal 0.84946814923522773 0.47256536548289074 0.23470372553689675
    outer loop
      vertex -0.36784517765045166 -0.48969376087188721 -1.1688438653945923
      vertex -0.9175378680229187 0.12488292902708054 -0.41675195097923279
      vertex -0.31641703844070435 -0.58213931322097778 -1.1688438653945923
    endloop
  endfacet
  facet normal 0.84946804087432592 0.47256581155111005 0.23470321959056159
    outer loop
      vertex -0.31641703844070435 -0.58213931322097778 -1.1688438653945923
      vertex -0.9175378680229187 0.12488292902708054 -0.41675195097923279
      vertex -0.29862436652183533 -0.61412280797958374 -1.1688438653945923
    endloop
  endfacet
  facet normal 0.84946814931947501 0.47256536517653452 0.23470372584881277
    outer loop
      vertex -0.39422085881233215 -0.44228169322013855 -1.1688438653945923
      vertex -0.9175378680229187 0.12488292902708054 -0.41675195097923279
      vertex -0.36784517765045166 -0.48969376087188721 -1.1688438653945923
    endloop
  endfacet
  facet normal 0.84946828330096591 0.47256490608696816 0.23470416528200871
    outer loop
      vertex -0.39422085881233215 -0.44228169322013855 -1.1688438653945923
      vertex -0.40531554818153381 -0.42233821749687195 -1.1688438653945923
      vertex -0.9175378680229187 0.12488292902708054 -0.41675195097923279
    endloop
  endfacet
  facet normal 0.84946814633138712 0.47256536416524669 0.23470373869984495
    outer loop
      vertex -0.42342859506607056 -0.38977879285812378 -1.1688438653945923
      vertex -0.9175378680229187 0.12488292902708054 -0.41675195097923279
      vertex -0.40531554818153381 -0.42233821749687195 -1.1688438653945923
    endloop
  endfacet
  facet normal 0.84946823007472305 0.47256509473548297 0.23470397809019269
    outer loop
      vertex -0.45772850513458252 -0.3281223475933075 -1.1688438653945923
      vertex -0.9175378680229187 0.12488292902708054 -0.41675195097923279
      vertex -0.42342859506607056 -0.38977879285812378 -1.1688438653945923
    endloop
  endfacet
  facet normal 0.84946823144665606 0.472565102589868 0.23470395731030608
    outer loop
      vertex -0.47230657935142517 -0.30191728472709656 -1.1688438653945923
      vertex -0.54761183261871338 -0.16655091941356659 -1.1688438653945923
      vertex -0.9175378680229187 0.12488292902708054 -0.41675195097923279
    endloop
  endfacet
  facet normal 0.84946807084928855 0.47256549674450909 0.23470374495138183
    outer loop
      vertex -0.60171425342559814 -0.069298170506954193 -1.1688438653945923
      vertex -0.63749521970748901 -0.0049794916994869709 -1.1688438653945923
      vertex -0.9175378680229187 0.12488292902708054 -0.41675195097923279
    endloop
  endfacet
  facet normal 0.84946906143510226 0.47256312592313976 0.23470493322961355
    outer loop
      vertex -0.5837138295173645 -0.10165508091449738 -1.1688438653945923
      vertex -0.9175378680229187 0.12488292902708054 -0.41675195097923279
      vertex -0.57279837131500244 -0.12127646803855896 -1.1688438653945923
    endloop
  endfacet
  facet normal 0.84946795417738619 0.4725658036566906 0.23470354927012113
    outer loop
      vertex -0.57279837131500244 -0.12127646803855896 -1.1688438653945923
      vertex -0.9175378680229187 0.12488292902708054 -0.41675195097923279
      vertex -0.54761183261871338 -0.16655091941356659 -1.1688438653945923
    endloop
  endfacet
  facet normal 0.84946779038439224 0.47256614215382459 0.23470346053969787
    outer loop
      vertex -0.60171425342559814 -0.069298170506954193 -1.1688438653945923
      vertex -0.9175378680229187 0.12488292902708054 -0.41675195097923279
      vertex -0.5837138295173645 -0.10165508091449738 -1.1688438653945923
    endloop
  endfacet
  facet normal 0.84946821691424157 0.4725651800084168 0.23470385402918251
    outer loop
      vertex -0.63749521970748901 -0.0049794916994869709 -1.1688438653945923
      vertex -0.65688627958297729 0.029877264052629471 -1.1688438653945923
      vertex -0.9175378680229187 0.12488292902708054 -0.41675195097923279
    endloop
  endfacet
  facet normal 0.84946833872474381 0.47256492401824596 0.23470392858206127
    outer loop
      vertex -0.65688627958297729 0.029877264052629471 -1.1688438653945923
      vertex -0.6878322958946228 0.085504882037639618 -1.1688438653945923
      vertex -0.9175378680229187 0.12488292902708054 -0.41675195097923279
    endloop
  endfacet
  facet normal 0.84946825751792443 0.47256548794638664 0.23470308705139464
    outer loop
      vertex -0.37715503573417664 -0.87138831615447998 -0.36662143468856812
      vertex -0.27799752354621887 -0.65120100975036621 -1.1688438653945923
      vertex -0.2943422794342041 -0.62182021141052246 -1.1688438653945923
    endloop
  endfacet
  facet normal 0.84947007290363563 0.47256258076448643 0.23470237003980227
    outer loop
      vertex -0.2943422794342041 -0.62182021141052246 -1.1688438653945923
      vertex -0.29862436652183533 -0.61412280797958374 -1.1688438653945923
      vertex -0.37715503573417664 -0.87138831615447998 -0.36662143468856812
    endloop
  endfacet
  facet normal 0.84946803892128042 0.47256581996729707 0.23470320971360825
    outer loop
      vertex -0.37715503573417664 -0.87138831615447998 -0.36662143468856812
      vertex -0.29862436652183533 -0.61412280797958374 -1.1688438653945923
      vertex -0.9175378680229187 0.12488292902708054 -0.41675195097923279
    endloop
  endfacet
  facet normal 0.64760499662332982 -0.72459574302154395 0.23573030679900656
    outer loop
      vertex 0.036086514592170715 0.73250079154968262 -1.1688438653945923
      vertex 0.040268559008836746 0.73623847961425781 -1.1688438653945923
      vertex 0.075627520680427551 0.94661277532577515 -0.61932742595672607
    endloop
  endfacet
  facet normal 0.64760171012396106 -0.7245982938163007 0.23573149480505842
    outer loop
      vertex 0.040268559008836746 0.73623847961425781 -1.1688438653945923
      vertex 0.060962013900279999 0.75473302602767944 -1.1688438653945923
      vertex 0.075627520680427551 0.94661277532577515 -0.61932742595672607
    endloop
  endfacet
  facet normal 0.64760279977768187 -0.72459743293307177 0.23573114751112184
    outer loop
      vertex -0.9175378680229187 0.12488292902708054 -0.41675195097923279
      vertex 0.02327776700258255 0.72105306386947632 -1.1688438653945923
      vertex 0.075627520680427551 0.94661277532577515 -0.61932742595672607
    endloop
  endfacet
  facet normal 0.64760341726102144 -0.72459696295830156 0.23573089577620662
    outer loop
      vertex 0.036086514592170715 0.73250079154968262 -1.1688438653945923
      vertex 0.075627520680427551 0.94661277532577515 -0.61932742595672607
      vertex 0.02327776700258255 0.72105306386947632 -1.1688438653945923
    endloop
  endfacet
  facet normal 0.6476028548626005 -0.72459736563892885 0.23573120303204256
    outer loop
      vertex 0.0060653081163764 0.70566964149475098 -1.1688438653945923
      vertex 0.021746594458818436 0.7196846604347229 -1.1688438653945923
      vertex -0.9175378680229187 0.12488292902708054 -0.41675195097923279
    endloop
  endfacet
  facet normal 0.64760262570581473 -0.72459775350051614 0.23573064035237273
    outer loop
      vertex -0.21843616664409637 0.50502347946166992 -1.1688438653945923
      vertex -0.093030847609043121 0.61710333824157715 -1.1688438653945923
      vertex -0.9175378680229187 0.12488292902708054 -0.41675195097923279
    endloop
  endfacet
  facet normal 0.64760286568701964 -0.72459740995761279 0.23573103706699142
    outer loop
      vertex -0.21843616664409637 0.50502347946166992 -1.1688438653945923
      vertex -0.9175378680229187 0.12488292902708054 -0.41675195097923279
      vertex -0.24514283239841461 0.48115462064743042 -1.1688438653945923
    endloop
  endfacet
  facet normal 0.64760412748482998 -0.72459564291394873 0.23573300221804627
    outer loop
      vertex -0.24514283239841461 0.48115462064743042 -1.1688438653945923
      vertex -0.9175378680229187 0.12488292902708054 -0.41675195097923279
      vertex -0.2467314749956131 0.47973477840423584 -1.1688438653945923
    endloop
  endfacet
  facet normal 0.64760238091727618 -0.72459808564145156 0.23573029189100544
    outer loop
      vertex -0.2467314749956131 0.47973477840423584 -1.1688438653945923
      vertex -0.9175378680229187 0.12488292902708054 -0.41675195097923279
      vertex -0.27349624037742615 0.45581403374671936 -1.1688438653945923
    endloop
  endfacet
  facet normal 0.64760276081558432 -0.72459756587186241 0.23573084591670504
    outer loop
      vertex -0.9175378680229187 0.12488292902708054 -0.41675195097923279
      vertex -0.3970332145690918 0.34540393948554993 -1.1688438653945923
      vertex -0.27349624037742615 0.45581403374671936 -1.1688438653945923
    endloop
  endfacet
  facet normal 0.64760228765271344 -0.72459829054332447 0.23572991827229745
    outer loop
      vertex -0.066857188940048218 0.64049577713012695 -1.1688438653945923
      vertex -0.9175378680229187 0.12488292902708054 -0.41675195097923279
      vertex -0.093030847609043121 0.61710333824157715 -1.1688438653945923
    endloop
  endfacet
  facet normal 0.64759007251316114 -0.72461973820245673 0.23569754557441067
    outer loop
      vertex -0.9175378680229187 0.12488292902708054 -0.41675195097923279
      vertex 0.021746594458818436 0.7196846604347229 -1.1688438653945923
      vertex 0.02327776700258255 0.72105306386947632 -1.1688438653945923
    endloop
  endfacet
  facet normal 0.64760285571609288 -0.72459736416480269 0.23573120521853219
    outer loop
      vertex -0.065950378775596619 0.64130622148513794 -1.1688438653945923
      vertex 0.0060653081163764 0.70566964149475098 -1.1688438653945923
      vertex -0.9175378680229187 0.12488292902708054 -0.41675195097923279
    endloop
  endfacet
  facet normal 0.64759970416960788 -0.72460248579174613 0.23572411998745191
    outer loop
      vertex -0.066857188940048218 0.64049577713012695 -1.1688438653945923
      vertex -0.065950378775596619 0.64130622148513794 -1.1688438653945923
      vertex -0.9175378680229187 0.12488292902708054 -0.41675195097923279
    endloop
  endfacet
  facet normal 0.64760325564987542 -0.72459707150649988 0.23573100609781089
    outer loop
      vertex -0.9175378680229187 0.12488292902708054 -0.41675195097923279
      vertex -0.63444846868515015 0.13321615755558014 -1.1688438653945923
      vertex -0.60829353332519531 0.15659193694591522 -1.1688438653945923
    endloop
  endfacet
  facet normal 0.64760293818761894 -0.72459740223840885 0.23573086162001111
    outer loop
      vertex -0.9175378680229187 0.12488292902708054 -0.41675195097923279
      vertex -0.60829353332519531 0.15659193694591522 -1.1688438653945923
      vertex -0.60171425342559814 0.16247211396694183 -1.1688438653945923
    endloop
  endfacet
  facet normal 0.64760139790836202 -0.72459896616133246 0.23573028584605643
    outer loop
      vertex -0.9175378680229187 0.12488292902708054 -0.41675195097923279
      vertex -0.64427459239959717 0.12443418055772781 -1.1688438653945923
      vertex -0.63444846868515015 0.13321615755558014 -1.1688438653945923
    endloop
  endfacet
  facet normal 0.64760260098113687 -0.7245977489573282 0.23573072224137268
    outer loop
      vertex -0.64427459239959717 0.12443418055772781 -1.1688438653945923
      vertex -0.9175378680229187 0.12488292902708054 -0.41675195097923279
      vertex -0.6878322958946228 0.085504882037639618 -1.1688438653945923
    endloop
  endfacet
  facet normal 0.64760253923832556 -0.72459783993541782 0.23573061221020844
    outer loop
      vertex -0.42342859506607056 0.32181331515312195 -1.1688438653945923
      vertex -0.3970332145690918 0.34540393948554993 -1.1688438653945923
      vertex -0.9175378680229187 0.12488292902708054 -0.41675195097923279
    endloop
  endfacet
  facet normal 0.64760490693073647 -0.72459497359831371 0.23573291826830475
    outer loop
      vertex -0.42342859506607056 0.32181331515312195 -1.1688438653945923
      vertex -0.9175378680229187 0.12488292902708054 -0.41675195097923279
      vertex -0.42751246690750122 0.31816336512565613 -1.1688438653945923
    endloop
  endfacet
  facet normal 0.64760273658433765 -0.72459759231822207 0.23573083119336022
    outer loop
      vertex -0.45396885275840759 0.29451820254325867 -1.1688438653945923
      vertex -0.42751246690750122 0.31816336512565613 -1.1688438653945923
      vertex -0.9175378680229187 0.12488292902708054 -0.41675195097923279
    endloop
  endfacet
  facet normal 0.64760258710995433 -0.72459776883497162 0.23573069924783882
    outer loop
      vertex -0.45396885275840759 0.29451820254325867 -1.1688438653945923
      vertex -0.9175378680229187 0.12488292902708054 -0.41675195097923279
      vertex -0.5756230354309082 0.18579089641571045 -1.1688438653945923
    endloop
  endfacet
  facet normal 0.64760253734561901 -0.72459782207415968 0.23573067231249398
    outer loop
      vertex -0.60171425342559814 0.16247211396694183 -1.1688438653945923
      vertex -0.5756230354309082 0.18579089641571045 -1.1688438653945923
      vertex -0.9175378680229187 0.12488292902708054 -0.41675195097923279
    endloop
  endfacet
  facet normal 0.55466797084388808 0.79819792625368635 -0.23499683539196506
    outer loop
      vertex 0.24618472158908844 -0.85953140258789062 1.1449373960494995
      vertex -0.7698405385017395 -0.43736287951469421 0.180743008852005
      vertex -0.53722125291824341 -0.31514236330986023 1.1449373960494995
    endloop
  endfacet
  facet normal 0.5546675245650764 0.79819844120395333 -0.23499613965431268
    outer loop
      vertex 0.24618472158908844 -0.85953140258789062 1.1449373960494995
      vertex -0.37715503573417664 -0.87138831615447998 -0.36662143468856812
      vertex -0.7698405385017395 -0.43736287951469421 0.180743008852005
    endloop
  endfacet
  facet normal 0.55466648973249022 0.79819928399843776 -0.23499571951892737
    outer loop
      vertex 0.24618472158908844 -0.85953140258789062 1.1449373960494995
      vertex 0.29003298282623291 -1.0063037872314453 0.74989849328994751
      vertex -0.37715503573417664 -0.87138831615447998 -0.36662143468856812
    endloop
  endfacet
  facet normal 0 -0 -1
    outer loop
      vertex 0.72921764850616455 0.33348670601844788 1.1449373960494995
      vertex -0.53722125291824341 -0.31514236330986023 1.1449373960494995
      vertex -0.54267919063568115 0.66620409488677979 1.1449373960494995
    endloop
  endfacet
  facet normal 0 -0 -1
    outer loop
      vertex 0.72921764850616455 0.33348670601844788 1.1449373960494995
      vertex 0.24618472158908844 -0.85953140258789062 1.1449373960494995
      vertex -0.53722125291824341 -0.31514236330986023 1.1449373960494995
    endloop
  endfacet
  facet normal -0.24595264399065367 -0.94020540301942068 -0.23562915152224959
    outer loop
      vertex 0.72921764850616455 0.33348670601844788 1.1449373960494995
      vertex 0.075627520680427551 0.94661277532577515 -0.61932742595672607
      vertex 0.89750540256500244 0.41799050569534302 0.63209021091461182
    endloop
  endfacet
  facet normal -0.24595054256691673 -0.94020572922490753 -0.23563004338093038
    outer loop
      vertex 0.72921764850616455 0.33348670601844788 1.1449373960494995
      vertex -0.62844324111938477 0.77683377265930176 0.79302972555160522
      vertex 0.075627520680427551 0.94661277532577515 -0.61932742595672607
    endloop
  endfacet
  facet normal -0.24594969902788025 -0.94020527705344614 -0.23563272809384481
    outer loop
      vertex 0.72921764850616455 0.33348670601844788 1.1449373960494995
      vertex -0.54267919063568115 0.66620409488677979 1.1449373960494995
      vertex -0.62844324111938477 0.77683377265930176 0.79302972555160522
    endloop
  endfacet
  facet normal -0.90083408255566566 0.36474103998731322 -0.23550356569501282
    outer loop
      vertex 0.90895640850067139 0.34273222088813782 0.47173067927360535
      vertex 0.72921764850616455 0.33348670601844788 1.1449373960494995
      vertex 0.89750540256500244 0.41799050569534302 0.63209021091461182
    endloop
  endfacet
  facet normal -0.90083685101830691 0.36473365968472188 -0.2355044062016885
    outer loop
      vertex 0.90895640850067139 0.34273222088813782 0.47173067927360535
      vertex 0.24618472158908844 -0.85953140258789062 1.1449373960494995
      vertex 0.72921764850616455 0.33348670601844788 1.1449373960494995
    endloop
  endfacet
  facet normal -0.90083687720711492 0.3647341908479379 -0.23550348339299274
    outer loop
      vertex 0.90895640850067139 0.34273222088813782 0.47173067927360535
      vertex 0.29003298282623291 -1.0063037872314453 0.74989849328994751
      vertex 0.24618472158908844 -0.85953140258789062 1.1449373960494995
    endloop
  endfacet
  facet normal -0.90083673449574619 0.36473392928194021 -0.23550443438202445
    outer loop
      vertex 0.90895640850067139 0.34273222088813782 0.47173067927360535
      vertex 0.77226465940475464 -0.60144078731536865 -0.46767830848693848
      vertex 0.29003298282623291 -1.0063037872314453 0.74989849328994751
    endloop
  endfacet
  facet normal 0.97193859741458111 0.0054038282385735154 -0.23517262063459873
    outer loop
      vertex -0.9175378680229187 0.12488292902708054 -0.41675195097923279
      vertex -0.53722125291824341 -0.31514236330986023 1.1449373960494995
      vertex -0.7698405385017395 -0.43736287951469421 0.180743008852005
    endloop
  endfacet
  facet normal 0.97193870305346242 0.0054056147674708946 -0.23517214298411082
    outer loop
      vertex -0.9175378680229187 0.12488292902708054 -0.41675195097923279
      vertex -0.54267919063568115 0.66620409488677979 1.1449373960494995
      vertex -0.53722125291824341 -0.31514236330986023 1.1449373960494995
    endloop
  endfacet
  facet normal 0.97193852233443456 0.0054077528476884906 -0.2351728407182552
    outer loop
      vertex -0.9175378680229187 0.12488292902708054 -0.41675195097923279
      vertex -0.62844324111938477 0.77683377265930176 0.79302972555160522
      vertex -0.54267919063568115 0.66620409488677979 1.1449373960494995
    endloop
  endfacet
  facet normal 0.84946803667837434 0.47256581923354524 0.23470321930880364
    outer loop
      vertex -0.9175378680229187 0.12488292902708054 -0.41675195097923279
      vertex -0.7698405385017395 -0.43736287951469421 0.180743008852005
      vertex -0.37715503573417664 -0.87138831615447998 -0.36662143468856812
    endloop
  endfacet
  facet normal 0.64760279451445779 -0.72459739195629258 0.23573128792590009
    outer loop
      vertex -0.9175378680229187 0.12488292902708054 -0.41675195097923279
      vertex 0.075627520680427551 0.94661277532577515 -0.61932742595672607
      vertex -0.62844324111938477 0.77683377265930176 0.79302972555160522
    endloop
  endfacet
  facet normal -0 -0 -1
    outer loop
      vertex 0.28551968932151794 0.47973477840423584 -1.1688438653945923
      vertex 0.2897142767906189 0.47973477840423584 -1.1688438653945923
      vertex 0.2897142767906189 0.47459802031517029 -1.1688438653945923
    endloop
  endfacet
  facet normal 0 -0 -1
    outer loop
      vertex -0.065950378775596619 0.64130622148513794 -1.1688438653945923
      vertex -0.066857188940048218 0.64049577713012695 -1.1688438653945923
      vertex -0.066857188940048218 0.64130622148513794 -1.1688438653945923
    endloop
  endfacet
  facet normal 0 0 -1
    outer loop
      vertex 0.46799996495246887 0.28955680131912231 -1.1688438653945923
      vertex 0.54667389392852783 0.19321100413799286 -1.1688438653945923
      vertex 0.46799996495246887 0.25626537203788757 -1.1688438653945923
    endloop
  endfacet
  facet normal 0 -0 -1
    outer loop
      vertex 0.46799996495246887 0.25626537203788757 -1.1688438653945923
      vertex 0.54667389392852783 0.19321100413799286 -1.1688438653945923
      vertex 0.52634787559509277 0.18481126427650452 -1.1688438653945923
    endloop
  endfacet
  facet normal 0 0 -1
    outer loop
      vertex 0.52634787559509277 0.18481126427650452 -1.1688438653945923
      vertex 0.54667389392852783 0.19321100413799286 -1.1688438653945923
      vertex 0.52644592523574829 0.18379579484462738 -1.1688438653945923
    endloop
  endfacet
  facet normal -0 0 -1
    outer loop
      vertex 0.52907127141952515 0.15659193694591522 -1.1688438653945923
      vertex 0.52644592523574829 0.18379579484462738 -1.1688438653945923
      vertex 0.55020791292190552 0.15659193694591522 -1.1688438653945923
    endloop
  endfacet
  facet normal -0 -0 -1
    outer loop
      vertex 0.55020791292190552 0.15659193694591522 -1.1688438653945923
      vertex 0.52644592523574829 0.18379579484462738 -1.1688438653945923
      vertex 0.54667389392852783 0.19321100413799286 -1.1688438653945923
    endloop
  endfacet
  facet normal 0 0 -1
    outer loop
      vertex 0.53244113922119141 0.12167318910360336 -1.1688438653945923
      vertex 0.56580066680908203 -0.0049794916994869709 -1.1688438653945923
      vertex 0.54466402530670166 -0.0049794916994869709 -1.1688438653945923
    endloop
  endfacet
  facet normal -0 -0 -1
    outer loop
      vertex 0.56580066680908203 -0.0049794916994869709 -1.1688438653945923
      vertex 0.53244113922119141 0.12167318910360336 -1.1688438653945923
      vertex 0.55020791292190552 0.15659193694591522 -1.1688438653945923
    endloop
  endfacet
  facet normal -0 0 -1
    outer loop
      vertex 0.53244113922119141 0.12167318910360336 -1.1688438653945923
      vertex 0.52907127141952515 0.15659193694591522 -1.1688438653945923
      vertex 0.55020791292190552 0.15659193694591522 -1.1688438653945923
    endloop
  endfacet
  facet normal 0 0 -1
    outer loop
      vertex 0.58139342069625854 -0.16655091941356659 -1.1688438653945923
      vertex 0.56025683879852295 -0.16655091941356659 -1.1688438653945923
      vertex 0.54757052659988403 -0.035096529871225357 -1.1688438653945923
    endloop
  endfacet
  facet normal -0 -0 -1
    outer loop
      vertex 0.58139342069625854 -0.16655091941356659 -1.1688438653945923
      vertex 0.54757052659988403 -0.035096529871225357 -1.1688438653945923
      vertex 0.56580066680908203 -0.0049794916994869709 -1.1688438653945923
    endloop
  endfacet
  facet normal -0 0 -1
    outer loop
      vertex 0.54757052659988403 -0.035096529871225357 -1.1688438653945923
      vertex 0.54466402530670166 -0.0049794916994869709 -1.1688438653945923
      vertex 0.56580066680908203 -0.0049794916994869709 -1.1688438653945923
    endloop
  endfacet
  facet normal 0 0 -1
    outer loop
      vertex 0.59698623418807983 -0.3281223475933075 -1.1688438653945923
      vertex 0.57584959268569946 -0.3281223475933075 -1.1688438653945923
      vertex 0.56281197071075439 -0.19302716851234436 -1.1688438653945923
    endloop
  endfacet
  facet normal -0 -0 -1
    outer loop
      vertex 0.59698623418807983 -0.3281223475933075 -1.1688438653945923
      vertex 0.56281197071075439 -0.19302716851234436 -1.1688438653945923
      vertex 0.58139342069625854 -0.16655091941356659 -1.1688438653945923
    endloop
  endfacet
  facet normal -0 0 -1
    outer loop
      vertex 0.56281197071075439 -0.19302716851234436 -1.1688438653945923
      vertex 0.56025683879852295 -0.16655091941356659 -1.1688438653945923
      vertex 0.58139342069625854 -0.16655091941356659 -1.1688438653945923
    endloop
  endfacet
  facet normal -0 0 -1
    outer loop
      vertex 0.58512771129608154 -0.42426171898841858 -1.1688438653945923
      vertex 0.57584959268569946 -0.3281223475933075 -1.1688438653945923
      vertex 0.59698623418807983 -0.3281223475933075 -1.1688438653945923
    endloop
  endfacet
  facet normal 0 0 -1
    outer loop
      vertex 0.59698623418807983 -0.3281223475933075 -1.1688438653945923
      vertex 0.60808271169662476 -0.44310334324836731 -1.1688438653945923
      vertex 0.58512771129608154 -0.42426171898841858 -1.1688438653945923
    endloop
  endfacet
  facet normal -0 0 -1
    outer loop
      vertex 0.48011219501495361 -0.48969376087188721 -1.1688438653945923
      vertex 0.54750138521194458 -0.47533720731735229 -1.1688438653945923
      vertex 0.58152002096176147 -0.48969376087188721 -1.1688438653945923
    endloop
  endfacet
  facet normal 0 0 -1
    outer loop
      vertex 0.57708603143692017 -0.46903452277183533 -1.1688438653945923
      vertex 0.58152002096176147 -0.48969376087188721 -1.1688438653945923
      vertex 0.54750138521194458 -0.47533720731735229 -1.1688438653945923
    endloop
  endfacet
  facet normal -0 0 -1
    outer loop
      vertex 0.57708603143692017 -0.46903452277183533 -1.1688438653945923
      vertex 0.58919960260391235 -0.46645385026931763 -1.1688438653945923
      vertex 0.58152002096176147 -0.48969376087188721 -1.1688438653945923
    endloop
  endfacet
  facet normal 0 -0 -1
    outer loop
      vertex 0.58152002096176147 -0.48969376087188721 -1.1688438653945923
      vertex 0.58919960260391235 -0.46645385026931763 -1.1688438653945923
      vertex 0.60808271169662476 -0.44310334324836731 -1.1688438653945923
    endloop
  endfacet
  facet normal -0 0 -1
    outer loop
      vertex 0.58760344982147217 -0.44991457462310791 -1.1688438653945923
      vertex 0.60808271169662476 -0.44310334324836731 -1.1688438653945923
      vertex 0.58919960260391235 -0.46645385026931763 -1.1688438653945923
    endloop
  endfacet
  facet normal 0 0 -1
    outer loop
      vertex 0.58760344982147217 -0.44991457462310791 -1.1688438653945923
      vertex 0.58728200197219849 -0.44658440351486206 -1.1688438653945923
      vertex 0.60808271169662476 -0.44310334324836731 -1.1688438653945923
    endloop
  endfacet
  facet normal 0 0 -1
    outer loop
      vertex 0.58512771129608154 -0.42426171898841858 -1.1688438653945923
      vertex 0.60808271169662476 -0.44310334324836731 -1.1688438653945923
      vertex 0.58728200197219849 -0.44658440351486206 -1.1688438653945923
    endloop
  endfacet
  facet normal -0 -0 -1
    outer loop
      vertex 0.47437885403633118 -0.4909152090549469 -1.1688438653945923
      vertex 0.48011219501495361 -0.48969376087188721 -1.1688438653945923
      vertex 0.52778470516204834 -0.50114148855209351 -1.1688438653945923
    endloop
  endfacet
  facet normal 0 -0 -1
    outer loop
      vertex 0.52778470516204834 -0.50114148855209351 -1.1688438653945923
      vertex 0.48011219501495361 -0.48969376087188721 -1.1688438653945923
      vertex 0.58152002096176147 -0.48969376087188721 -1.1688438653945923
    endloop
  endfacet
  facet normal -0 0 -1
    outer loop
      vertex 0.46799996495246887 -0.49227413535118103 -1.1688438653945923
      vertex 0.47437885403633118 -0.4909152090549469 -1.1688438653945923
      vertex 0.46799996495246887 -0.51387804746627808 -1.1688438653945923
    endloop
  endfacet
  facet normal -0 0 -1
    outer loop
      vertex 0.52778470516204834 -0.50114148855209351 -1.1688438653945923
      vertex 0.46799996495246887 -0.51387804746627808 -1.1688438653945923
      vertex 0.47437885403633118 -0.4909152090549469 -1.1688438653945923
    endloop
  endfacet
  facet normal -0 -0 -1
    outer loop
      vertex 0.44464045763015747 0.31816336512565613 -1.1688438653945923
      vertex 0.30867058038711548 0.45138370990753174 -1.1688438653945923
      vertex 0.31270474195480347 0.47973477840423584 -1.1688438653945923
    endloop
  endfacet
  facet normal 0 -0 -1
    outer loop
      vertex 0.30867058038711548 0.45138370990753174 -1.1688438653945923
      vertex 0.44464045763015747 0.31816336512565613 -1.1688438653945923
      vertex 0.41745543479919434 0.31816336512565613 -1.1688438653945923
    endloop
  endfacet
  facet normal 0 -0 -1
    outer loop
      vertex 0.31270474195480347 0.47973477840423584 -1.1688438653945923
      vertex 0.30867058038711548 0.45138370990753174 -1.1688438653945923
      vertex 0.2897142767906189 0.47459802031517029 -1.1688438653945923
    endloop
  endfacet
  facet normal 0 -0 -1
    outer loop
      vertex 0.31270474195480347 0.47973477840423584 -1.1688438653945923
      vertex 0.2897142767906189 0.47459802031517029 -1.1688438653945923
      vertex 0.2897142767906189 0.47973477840423584 -1.1688438653945923
    endloop
  endfacet
  facet normal 0 -0 -1
    outer loop
      vertex 0.45110440254211426 0.27695611119270325 -1.1688438653945923
      vertex 0.42995855212211609 0.30285173654556274 -1.1688438653945923
      vertex 0.46799996495246887 0.28955680131912231 -1.1688438653945923
    endloop
  endfacet
  facet normal 0 0 -1
    outer loop
      vertex 0.46799996495246887 0.28955680131912231 -1.1688438653945923
      vertex 0.42995855212211609 0.30285173654556274 -1.1688438653945923
      vertex 0.44464045763015747 0.31816336512565613 -1.1688438653945923
    endloop
  endfacet
  facet normal 0 -0 -1
    outer loop
      vertex 0.46799996495246887 0.28955680131912231 -1.1688438653945923
      vertex 0.46799996495246887 0.25626537203788757 -1.1688438653945923
      vertex 0.45110440254211426 0.27695611119270325 -1.1688438653945923
    endloop
  endfacet
  facet normal 0 -0 -1
    outer loop
      vertex 0.42995855212211609 0.30285173654556274 -1.1688438653945923
      vertex 0.41745543479919434 0.31816336512565613 -1.1688438653945923
      vertex 0.44464045763015747 0.31816336512565613 -1.1688438653945923
    endloop
  endfacet
  facet normal 0 0 -1
    outer loop
      vertex 0.4060424268245697 -0.5054735541343689 -1.1688438653945923
      vertex 0.46799996495246887 -0.49227413535118103 -1.1688438653945923
      vertex 0.46799996495246887 -0.51387804746627808 -1.1688438653945923
    endloop
  endfacet
  facet normal 0 0 -1
    outer loop
      vertex 0.2897142767906189 -0.53025603294372559 -1.1688438653945923
      vertex 0.4060424268245697 -0.5054735541343689 -1.1688438653945923
      vertex 0.2897142767906189 -0.55185985565185547 -1.1688438653945923
    endloop
  endfacet
  facet normal -0 0 -1
    outer loop
      vertex 0.46799996495246887 -0.51387804746627808 -1.1688438653945923
      vertex 0.2897142767906189 -0.55185985565185547 -1.1688438653945923
      vertex 0.4060424268245697 -0.5054735541343689 -1.1688438653945923
    endloop
  endfacet
  facet normal -0 -0 -1
    outer loop
      vertex 0.18076892197132111 0.64130622148513794 -1.1688438653945923
      vertex 0.11142857372760773 0.69293057918548584 -1.1688438653945923
      vertex 0.11142857372760773 0.72622191905975342 -1.1688438653945923
    endloop
  endfacet
  facet normal 0 0 -1
    outer loop
      vertex 0.11142857372760773 0.69293057918548584 -1.1688438653945923
      vertex 0.18076892197132111 0.64130622148513794 -1.1688438653945923
      vertex 0.15358391404151917 0.64130622148513794 -1.1688438653945923
    endloop
  endfacet
  facet normal -0 -0 -1
    outer loop
      vertex 0.17140358686447144 0.61948388814926147 -1.1688438653945923
      vertex 0.18076892197132111 0.64130622148513794 -1.1688438653945923
      vertex 0.26563441753387451 0.50408673286437988 -1.1688438653945923
    endloop
  endfacet
  facet normal -0 0 -1
    outer loop
      vertex 0.2897142767906189 0.50788938999176025 -1.1688438653945923
      vertex 0.26563441753387451 0.50408673286437988 -1.1688438653945923
      vertex 0.18076892197132111 0.64130622148513794 -1.1688438653945923
    endloop
  endfacet
  facet normal 0 -0 -1
    outer loop
      vertex 0.2897142767906189 0.50788938999176025 -1.1688438653945923
      vertex 0.28551968932151794 0.47973477840423584 -1.1688438653945923
      vertex 0.26563441753387451 0.50408673286437988 -1.1688438653945923
    endloop
  endfacet
  facet normal -0 0 -1
    outer loop
      vertex 0.28551968932151794 0.47973477840423584 -1.1688438653945923
      vertex 0.2897142767906189 0.50788938999176025 -1.1688438653945923
      vertex 0.2897142767906189 0.47973477840423584 -1.1688438653945923
    endloop
  endfacet
  facet normal 0 -0 -1
    outer loop
      vertex 0.17140358686447144 0.61948388814926147 -1.1688438653945923
      vertex 0.15358391404151917 0.64130622148513794 -1.1688438653945923
      vertex 0.18076892197132111 0.64130622148513794 -1.1688438653945923
    endloop
  endfacet
  facet normal 0 0 -1
    outer loop
      vertex 0.2512546181678772 -0.53844946622848511 -1.1688438653945923
      vertex 0.2897142767906189 -0.53025603294372559 -1.1688438653945923
      vertex 0.2897142767906189 -0.55185985565185547 -1.1688438653945923
    endloop
  endfacet
  facet normal 0 -0 -1
    outer loop
      vertex 0.2512546181678772 -0.53844946622848511 -1.1688438653945923
      vertex 0.11142857372760773 -0.58984178304672241 -1.1688438653945923
      vertex 0.11142857372760773 -0.56823790073394775 -1.1688438653945923
    endloop
  endfacet
  facet normal -0 0 -1
    outer loop
      vertex 0.11142857372760773 -0.58984178304672241 -1.1688438653945923
      vertex 0.2512546181678772 -0.53844946622848511 -1.1688438653945923
      vertex 0.2897142767906189 -0.55185985565185547 -1.1688438653945923
    endloop
  endfacet
  facet normal 0 -0 -1
    outer loop
      vertex 0.088953293859958649 0.7537456750869751 -1.1688438653945923
      vertex 0.091976664960384369 0.75004321336746216 -1.1688438653945923
      vertex 0.070337750017642975 0.74325132369995117 -1.1688438653945923
    endloop
  endfacet
  facet normal 0 -0 -1
    outer loop
      vertex 0.070337750017642975 0.74325132369995117 -1.1688438653945923
      vertex 0.067939020693302155 0.74618881940841675 -1.1688438653945923
      vertex 0.088953293859958649 0.7537456750869751 -1.1688438653945923
    endloop
  endfacet
  facet normal 0 -0 -1
    outer loop
      vertex 0.036086514592170715 0.73250079154968262 -1.1688438653945923
      vertex -0.012759756296873093 0.71716928482055664 -1.1688438653945923
      vertex 0.040268559008836746 0.73623847961425781 -1.1688438653945923
    endloop
  endfacet
  facet normal 0 0 -1
    outer loop
      vertex 0.11142857372760773 0.72622191905975342 -1.1688438653945923
      vertex 0.085770823061466217 0.72435164451599121 -1.1688438653945923
      vertex 0.091976664960384369 0.75004321336746216 -1.1688438653945923
    endloop
  endfacet
  facet normal -0 0 -1
    outer loop
      vertex 0.075165443122386932 0.73733925819396973 -1.1688438653945923
      vertex 0.091976664960384369 0.75004321336746216 -1.1688438653945923
      vertex 0.085770823061466217 0.72435164451599121 -1.1688438653945923
    endloop
  endfacet
  facet normal 0 0 -1
    outer loop
      vertex 0.070337750017642975 0.74325132369995117 -1.1688438653945923
      vertex 0.091976664960384369 0.75004321336746216 -1.1688438653945923
      vertex 0.073667630553245544 0.73917347192764282 -1.1688438653945923
    endloop
  endfacet
  facet normal 0 -0 -1
    outer loop
      vertex 0.075165443122386932 0.73733925819396973 -1.1688438653945923
      vertex 0.073667630553245544 0.73917347192764282 -1.1688438653945923
      vertex 0.091976664960384369 0.75004321336746216 -1.1688438653945923
    endloop
  endfacet
  facet normal 0 0 -1
    outer loop
      vertex -0.012759756296873093 0.71716928482055664 -1.1688438653945923
      vertex 0.02327776700258255 0.72105306386947632 -1.1688438653945923
      vertex 0.021746594458818436 0.7196846604347229 -1.1688438653945923
    endloop
  endfacet
  facet normal 0 -0 -1
    outer loop
      vertex 0.02327776700258255 0.72105306386947632 -1.1688438653945923
      vertex -0.012759756296873093 0.71716928482055664 -1.1688438653945923
      vertex 0.036086514592170715 0.73250079154968262 -1.1688438653945923
    endloop
  endfacet
  facet normal -0 0 -1
    outer loop
      vertex 0.060962013900279999 0.75473302602767944 -1.1688438653945923
      vertex 0.040268559008836746 0.73623847961425781 -1.1688438653945923
      vertex 0.063306719064712524 0.7851530909538269 -1.1688438653945923
    endloop
  endfacet
  facet normal 0 -0 -1
    outer loop
      vertex 0.063306719064712524 0.7851530909538269 -1.1688438653945923
      vertex 0.040268559008836746 0.73623847961425781 -1.1688438653945923
      vertex -0.012759756296873093 0.71716928482055664 -1.1688438653945923
    endloop
  endfacet
  facet normal 0 -0 -1
    outer loop
      vertex 0.067939020693302155 0.74618881940841675 -1.1688438653945923
      vertex 0.060962013900279999 0.75473302602767944 -1.1688438653945923
      vertex 0.088953293859958649 0.7537456750869751 -1.1688438653945923
    endloop
  endfacet
  facet normal -0 -0 -1
    outer loop
      vertex 0.060962013900279999 0.75473302602767944 -1.1688438653945923
      vertex 0.063306719064712524 0.7851530909538269 -1.1688438653945923
      vertex 0.088953293859958649 0.7537456750869751 -1.1688438653945923
    endloop
  endfacet
  facet normal -0 0 -1
    outer loop
      vertex -0.065950378775596619 0.64130622148513794 -1.1688438653945923
      vertex -0.012759756296873093 0.71716928482055664 -1.1688438653945923
      vertex 0.0060653081163764 0.70566964149475098 -1.1688438653945923
    endloop
  endfacet
  facet normal 0 -0 -1
    outer loop
      vertex -0.012759756296873093 0.71716928482055664 -1.1688438653945923
      vertex -0.065950378775596619 0.64130622148513794 -1.1688438653945923
      vertex -0.066857188940048218 0.64130622148513794 -1.1688438653945923
    endloop
  endfacet
  facet normal -0 -0 -1
    outer loop
      vertex 0.11142857372760773 0.69293057918548584 -1.1688438653945923
      vertex 0.085770823061466217 0.72435164451599121 -1.1688438653945923
      vertex 0.11142857372760773 0.72622191905975342 -1.1688438653945923
    endloop
  endfacet
  facet normal 0 -0 -1
    outer loop
      vertex 0.0060653081163764 0.70566964149475098 -1.1688438653945923
      vertex -0.012759756296873093 0.71716928482055664 -1.1688438653945923
      vertex 0.021746594458818436 0.7196846604347229 -1.1688438653945923
    endloop
  endfacet
  facet normal 0 0 -1
    outer loop
      vertex 0.083544231951236725 -0.57417839765548706 -1.1688438653945923
      vertex 0.11142857372760773 -0.56823790073394775 -1.1688438653945923
      vertex 0.11142857372760773 -0.58984178304672241 -1.1688438653945923
    endloop
  endfacet
  facet normal 0 -0 -1
    outer loop
      vertex 0.083544231951236725 -0.57417839765548706 -1.1688438653945923
      vertex -0.066857188940048218 -0.62782365083694458 -1.1688438653945923
      vertex -0.066857188940048218 -0.60621976852416992 -1.1688438653945923
    endloop
  endfacet
  facet normal 0 -0 -1
    outer loop
      vertex -0.066857188940048218 -0.62782365083694458 -1.1688438653945923
      vertex 0.083544231951236725 -0.57417839765548706 -1.1688438653945923
      vertex 0.11142857372760773 -0.58984178304672241 -1.1688438653945923
    endloop
  endfacet
  facet normal 0 -0 -1
    outer loop
      vertex -0.093030847609043121 0.61710333824157715 -1.1688438653945923
      vertex -0.097642377018928528 0.64130622148513794 -1.1688438653945923
      vertex -0.066857188940048218 0.64049577713012695 -1.1688438653945923
    endloop
  endfacet
  facet normal 0 0 -1
    outer loop
      vertex -0.066857188940048218 0.64130622148513794 -1.1688438653945923
      vertex -0.066857188940048218 0.64049577713012695 -1.1688438653945923
      vertex -0.097642377018928528 0.64130622148513794 -1.1688438653945923
    endloop
  endfacet
  facet normal -0 0 -1
    outer loop
      vertex -0.097642377018928528 0.64130622148513794 -1.1688438653945923
      vertex -0.093030847609043121 0.61710333824157715 -1.1688438653945923
      vertex -0.21843616664409637 0.50502347946166992 -1.1688438653945923
    endloop
  endfacet
  facet normal 0 0 -1
    outer loop
      vertex -0.097642377018928528 0.64130622148513794 -1.1688438653945923
      vertex -0.21843616664409637 0.50502347946166992 -1.1688438653945923
      vertex -0.24514283239841461 0.50947904586791992 -1.1688438653945923
    endloop
  endfacet
  facet normal 0 0 -1
    outer loop
      vertex -0.21843616664409637 0.50502347946166992 -1.1688438653945923
      vertex -0.24514283239841461 0.48115462064743042 -1.1688438653945923
      vertex -0.24514283239841461 0.50947904586791992 -1.1688438653945923
    endloop
  endfacet
  facet normal 0 0 -1
    outer loop
      vertex -0.15968160331249237 -0.62599503993988037 -1.1688438653945923
      vertex -0.066857188940048218 -0.60621976852416992 -1.1688438653945923
      vertex -0.066857188940048218 -0.62782365083694458 -1.1688438653945923
    endloop
  endfacet
  facet normal 0 -0 -1
    outer loop
      vertex -0.066857188940048218 -0.62782365083694458 -1.1688438653945923
      vertex -0.17689119279384613 -0.65126520395278931 -1.1688438653945923
      vertex -0.15968160331249237 -0.62599503993988037 -1.1688438653945923
    endloop
  endfacet
  facet normal 0 -0 -1
    outer loop
      vertex -0.18526370823383331 -0.63144505023956299 -1.1688438653945923
      vertex -0.24514283239841461 -0.65126520395278931 -1.1688438653945923
      vertex -0.24514283239841461 -0.64420169591903687 -1.1688438653945923
    endloop
  endfacet
  facet normal -0 0 -1
    outer loop
      vertex -0.24514283239841461 -0.65126520395278931 -1.1688438653945923
      vertex -0.18526370823383331 -0.63144505023956299 -1.1688438653945923
      vertex -0.17689119279384613 -0.65126520395278931 -1.1688438653945923
    endloop
  endfacet
  facet normal 0 0 -1
    outer loop
      vertex -0.18526370823383331 -0.63144505023956299 -1.1688438653945923
      vertex -0.15968160331249237 -0.62599503993988037 -1.1688438653945923
      vertex -0.17689119279384613 -0.65126520395278931 -1.1688438653945923
    endloop
  endfacet
  facet normal -0 0 -1
    outer loop
      vertex -0.24514283239841461 0.50947904586791992 -1.1688438653945923
      vertex -0.24514283239841461 0.48115462064743042 -1.1688438653945923
      vertex -0.2467314749956131 0.47973477840423584 -1.1688438653945923
    endloop
  endfacet
  facet normal 0 -0 -1
    outer loop
      vertex -0.24514283239841461 0.50947904586791992 -1.1688438653945923
      vertex -0.2467314749956131 0.47973477840423584 -1.1688438653945923
      vertex -0.27842345833778381 0.47973477840423584 -1.1688438653945923
    endloop
  endfacet
  facet normal 0 -0 -1
    outer loop
      vertex -0.27349624037742615 0.45581403374671936 -1.1688438653945923
      vertex -0.27842345833778381 0.47973477840423584 -1.1688438653945923
      vertex -0.2467314749956131 0.47973477840423584 -1.1688438653945923
    endloop
  endfacet
  facet normal 0 0 -1
    outer loop
      vertex -0.3970332145690918 0.34540393948554993 -1.1688438653945923
      vertex -0.27842345833778381 0.47973477840423584 -1.1688438653945923
      vertex -0.27349624037742615 0.45581403374671936 -1.1688438653945923
    endloop
  endfacet
  facet normal 0 -0 -1
    outer loop
      vertex -0.27842345833778381 0.47973477840423584 -1.1688438653945923
      vertex -0.3970332145690918 0.34540393948554993 -1.1688438653945923
      vertex -0.42342859506607056 0.35013777017593384 -1.1688438653945923
    endloop
  endfacet
  facet normal 0 0 -1
    outer loop
      vertex -0.3970332145690918 0.34540393948554993 -1.1688438653945923
      vertex -0.42342859506607056 0.32181331515312195 -1.1688438653945923
      vertex -0.42342859506607056 0.35013777017593384 -1.1688438653945923
    endloop
  endfacet
  facet normal 0 0 -1
    outer loop
      vertex -0.40531554818153381 -0.42233821749687195 -1.1688438653945923
      vertex -0.39422085881233215 -0.44228169322013855 -1.1688438653945923
      vertex -0.42342859506607056 -0.43299257755279541 -1.1688438653945923
    endloop
  endfacet
  facet normal 0 0 -1
    outer loop
      vertex -0.42342859506607056 -0.38977879285812378 -1.1688438653945923
      vertex -0.40531554818153381 -0.42233821749687195 -1.1688438653945923
      vertex -0.42342859506607056 -0.43299257755279541 -1.1688438653945923
    endloop
  endfacet
  facet normal 0 0 -1
    outer loop
      vertex -0.36784517765045166 -0.48969376087188721 -1.1688438653945923
      vertex -0.39188534021377563 -0.48969376087188721 -1.1688438653945923
      vertex -0.39422085881233215 -0.44228169322013855 -1.1688438653945923
    endloop
  endfacet
  facet normal 0 0 -1
    outer loop
      vertex -0.39422085881233215 -0.44228169322013855 -1.1688438653945923
      vertex -0.39188534021377563 -0.48969376087188721 -1.1688438653945923
      vertex -0.42342859506607056 -0.43299257755279541 -1.1688438653945923
    endloop
  endfacet
  facet normal 0 0 -1
    outer loop
      vertex -0.24514283239841461 -0.64420169591903687 -1.1688438653945923
      vertex -0.24514283239841461 -0.65126520395278931 -1.1688438653945923
      vertex -0.2538469135761261 -0.64605599641799927 -1.1688438653945923
    endloop
  endfacet
  facet normal 0 0 -1
    outer loop
      vertex -0.31641703844070435 -0.58213931322097778 -1.1688438653945923
      vertex -0.29862436652183533 -0.61412280797958374 -1.1688438653945923
      vertex -0.33038127422332764 -0.60025149583816528 -1.1688438653945923
    endloop
  endfacet
  facet normal -0 -0 -1
    outer loop
      vertex -0.2943422794342041 -0.62182021141052246 -1.1688438653945923
      vertex -0.33038127422332764 -0.60025149583816528 -1.1688438653945923
      vertex -0.29862436652183533 -0.61412280797958374 -1.1688438653945923
    endloop
  endfacet
  facet normal 0 0 -1
    outer loop
      vertex -0.36784517765045166 -0.48969376087188721 -1.1688438653945923
      vertex -0.31641703844070435 -0.58213931322097778 -1.1688438653945923
      vertex -0.33038127422332764 -0.60025149583816528 -1.1688438653945923
    endloop
  endfacet
  facet normal -0 0 -1
    outer loop
      vertex -0.33038127422332764 -0.60025149583816528 -1.1688438653945923
      vertex -0.39188534021377563 -0.48969376087188721 -1.1688438653945923
      vertex -0.36784517765045166 -0.48969376087188721 -1.1688438653945923
    endloop
  endfacet
  facet normal 0 0 -1
    outer loop
      vertex -0.27799752354621887 -0.65120100975036621 -1.1688438653945923
      vertex -0.30200192332267761 -0.65126520395278931 -1.1688438653945923
      vertex -0.2943422794342041 -0.62182021141052246 -1.1688438653945923
    endloop
  endfacet
  facet normal 0 0 -1
    outer loop
      vertex -0.33038127422332764 -0.60025149583816528 -1.1688438653945923
      vertex -0.2943422794342041 -0.62182021141052246 -1.1688438653945923
      vertex -0.30200192332267761 -0.65126520395278931 -1.1688438653945923
    endloop
  endfacet
  facet normal -0 0 -1
    outer loop
      vertex -0.30200192332267761 -0.65126520395278931 -1.1688438653945923
      vertex -0.27799752354621887 -0.65120100975036621 -1.1688438653945923
      vertex -0.24514283239841461 -0.65126520395278931 -1.1688438653945923
    endloop
  endfacet
  facet normal 0 0 -1
    outer loop
      vertex -0.2538469135761261 -0.64605599641799927 -1.1688438653945923
      vertex -0.24514283239841461 -0.65126520395278931 -1.1688438653945923
      vertex -0.27799752354621887 -0.65120100975036621 -1.1688438653945923
    endloop
  endfacet
  facet normal 0 0 -1
    outer loop
      vertex -0.42342859506607056 0.32181331515312195 -1.1688438653945923
      vertex -0.42751246690750122 0.31816336512565613 -1.1688438653945923
      vertex -0.42342859506607056 0.35013777017593384 -1.1688438653945923
    endloop
  endfacet
  facet normal 0 0 -1
    outer loop
      vertex -0.45920449495315552 0.31816336512565613 -1.1688438653945923
      vertex -0.42342859506607056 0.35013777017593384 -1.1688438653945923
      vertex -0.42751246690750122 0.31816336512565613 -1.1688438653945923
    endloop
  endfacet
  facet normal 0 0 -1
    outer loop
      vertex -0.45920449495315552 0.31816336512565613 -1.1688438653945923
      vertex -0.42751246690750122 0.31816336512565613 -1.1688438653945923
      vertex -0.45396885275840759 0.29451820254325867 -1.1688438653945923
    endloop
  endfacet
  facet normal 0 0 -1
    outer loop
      vertex -0.45920449495315552 0.31816336512565613 -1.1688438653945923
      vertex -0.45396885275840759 0.29451820254325867 -1.1688438653945923
      vertex -0.5756230354309082 0.18579089641571045 -1.1688438653945923
    endloop
  endfacet
  facet normal 0 0 -1
    outer loop
      vertex -0.45920449495315552 0.31816336512565613 -1.1688438653945923
      vertex -0.5756230354309082 0.18579089641571045 -1.1688438653945923
      vertex -0.60171425342559814 0.19079656898975372 -1.1688438653945923
    endloop
  endfacet
  facet normal 0 0 -1
    outer loop
      vertex -0.5756230354309082 0.18579089641571045 -1.1688438653945923
      vertex -0.60171425342559814 0.16247211396694183 -1.1688438653945923
      vertex -0.60171425342559814 0.19079656898975372 -1.1688438653945923
    endloop
  endfacet
  facet normal 0 0 -1
    outer loop
      vertex -0.5837138295173645 -0.10165508091449738 -1.1688438653945923
      vertex -0.57279837131500244 -0.12127646803855896 -1.1688438653945923
      vertex -0.60171425342559814 -0.11251196265220642 -1.1688438653945923
    endloop
  endfacet
  facet normal 0 0 -1
    outer loop
      vertex -0.60171425342559814 -0.069298170506954193 -1.1688438653945923
      vertex -0.5837138295173645 -0.10165508091449738 -1.1688438653945923
      vertex -0.60171425342559814 -0.11251196265220642 -1.1688438653945923
    endloop
  endfacet
  facet normal 0 0 -1
    outer loop
      vertex -0.54761183261871338 -0.16655091941356659 -1.1688438653945923
      vertex -0.57165193557739258 -0.16655091941356659 -1.1688438653945923
      vertex -0.57279837131500244 -0.12127646803855896 -1.1688438653945923
    endloop
  endfacet
  facet normal 0 0 -1
    outer loop
      vertex -0.57279837131500244 -0.12127646803855896 -1.1688438653945923
      vertex -0.57165193557739258 -0.16655091941356659 -1.1688438653945923
      vertex -0.60171425342559814 -0.11251196265220642 -1.1688438653945923
    endloop
  endfacet
  facet normal 0 0 -1
    outer loop
      vertex -0.47230657935142517 -0.30191728472709656 -1.1688438653945923
      vertex -0.45772850513458252 -0.3281223475933075 -1.1688438653945923
      vertex -0.48176866769790649 -0.3281223475933075 -1.1688438653945923
    endloop
  endfacet
  facet normal 0 0 -1
    outer loop
      vertex -0.57165193557739258 -0.16655091941356659 -1.1688438653945923
      vertex -0.47230657935142517 -0.30191728472709656 -1.1688438653945923
      vertex -0.48176866769790649 -0.3281223475933075 -1.1688438653945923
    endloop
  endfacet
  facet normal -0 0 -1
    outer loop
      vertex -0.47230657935142517 -0.30191728472709656 -1.1688438653945923
      vertex -0.57165193557739258 -0.16655091941356659 -1.1688438653945923
      vertex -0.54761183261871338 -0.16655091941356659 -1.1688438653945923
    endloop
  endfacet
  facet normal -0 0 -1
    outer loop
      vertex -0.42342859506607056 -0.38977879285812378 -1.1688438653945923
      vertex -0.48176866769790649 -0.3281223475933075 -1.1688438653945923
      vertex -0.45772850513458252 -0.3281223475933075 -1.1688438653945923
    endloop
  endfacet
  facet normal 0 0 -1
    outer loop
      vertex -0.48176866769790649 -0.3281223475933075 -1.1688438653945923
      vertex -0.42342859506607056 -0.38977879285812378 -1.1688438653945923
      vertex -0.42342859506607056 -0.43299257755279541 -1.1688438653945923
    endloop
  endfacet
  facet normal 0 0 -1
    outer loop
      vertex -0.60171425342559814 0.16247211396694183 -1.1688438653945923
      vertex -0.60829353332519531 0.15659193694591522 -1.1688438653945923
      vertex -0.60171425342559814 0.19079656898975372 -1.1688438653945923
    endloop
  endfacet
  facet normal 0 0 -1
    outer loop
      vertex -0.63998550176620483 0.15659193694591522 -1.1688438653945923
      vertex -0.60171425342559814 0.19079656898975372 -1.1688438653945923
      vertex -0.60829353332519531 0.15659193694591522 -1.1688438653945923
    endloop
  endfacet
  facet normal 0 0 -1
    outer loop
      vertex -0.63998550176620483 0.15659193694591522 -1.1688438653945923
      vertex -0.60829353332519531 0.15659193694591522 -1.1688438653945923
      vertex -0.63444846868515015 0.13321615755558014 -1.1688438653945923
    endloop
  endfacet
  facet normal -0 0 -1
    outer loop
      vertex -0.63998550176620483 0.15659193694591522 -1.1688438653945923
      vertex -0.63444846868515015 0.13321615755558014 -1.1688438653945923
      vertex -0.64427459239959717 0.12443418055772781 -1.1688438653945923
    endloop
  endfacet
  facet normal 0 0 -1
    outer loop
      vertex -0.65688627958297729 0.029877264052629471 -1.1688438653945923
      vertex -0.63749521970748901 -0.0049794916994869709 -1.1688438653945923
      vertex -0.66153532266616821 -0.0049794916994869709 -1.1688438653945923
    endloop
  endfacet
  facet normal -0 0 -1
    outer loop
      vertex -0.6878322958946228 0.085504882037639618 -1.1688438653945923
      vertex -0.65688627958297729 0.029877264052629471 -1.1688438653945923
      vertex -0.71441352367401123 0.0900726318359375 -1.1688438653945923
    endloop
  endfacet
  facet normal 0 0 -1
    outer loop
      vertex -0.71441352367401123 0.0900726318359375 -1.1688438653945923
      vertex -0.65688627958297729 0.029877264052629471 -1.1688438653945923
      vertex -0.66153532266616821 -0.0049794916994869709 -1.1688438653945923
    endloop
  endfacet
  facet normal 0 -0 -1
    outer loop
      vertex -0.6878322958946228 0.085504882037639618 -1.1688438653945923
      vertex -0.71441352367401123 0.0900726318359375 -1.1688438653945923
      vertex -0.64427459239959717 0.12443418055772781 -1.1688438653945923
    endloop
  endfacet
  facet normal 0 0 -1
    outer loop
      vertex -0.71441352367401123 0.0900726318359375 -1.1688438653945923
      vertex -0.63998550176620483 0.15659193694591522 -1.1688438653945923
      vertex -0.64427459239959717 0.12443418055772781 -1.1688438653945923
    endloop
  endfacet
  facet normal 0 0 -1
    outer loop
      vertex -0.66153532266616821 -0.0049794916994869709 -1.1688438653945923
      vertex -0.63749521970748901 -0.0049794916994869709 -1.1688438653945923
      vertex -0.60171425342559814 -0.069298170506954193 -1.1688438653945923
    endloop
  endfacet
  facet normal 0 0 -1
    outer loop
      vertex -0.66153532266616821 -0.0049794916994869709 -1.1688438653945923
      vertex -0.60171425342559814 -0.069298170506954193 -1.1688438653945923
      vertex -0.60171425342559814 -0.11251196265220642 -1.1688438653945923
    endloop
  endfacet
  facet normal -0.64760278766886148 0.72459738537611451 -0.2357313269585056
    outer loop
      vertex -0.94106441736221313 0.12892700731754303 -0.42675325274467468
      vertex -0.64455717802047729 0.79759454727172852 0.81404846906661987
      vertex 0.077566683292388916 0.97172677516937256 -0.63452297449111938
    endloop
  endfacet
  facet normal -0.84946806878711534 -0.47256574626717712 -0.23470325001165798
    outer loop
      vertex -0.94106441736221313 0.12892700731754303 -0.42675325274467468
      vertex -0.38682568073272705 -0.89288973808288574 -0.37533733248710632
      vertex -0.78958004713058472 -0.44773536920547485 0.18606208264827728
    endloop
  endfacet
  facet normal -0.97193851583249125 -0.0054079021537137284 0.23517286415662397
    outer loop
      vertex -0.94106441736221313 0.12892700731754303 -0.42675325274467468
      vertex -0.55659401416778564 0.68412822484970093 1.1749794483184814
      vertex -0.64455717802047729 0.79759454727172852 0.81404846906661987
    endloop
  endfacet
  facet normal -0.97193871366946505 -0.0054055615529566125 0.2351721003325925
    outer loop
      vertex -0.94106441736221313 0.12892700731754303 -0.42675325274467468
      vertex -0.55099618434906006 -0.32238098978996277 1.1749794483184814
      vertex -0.55659401416778564 0.68412822484970093 1.1749794483184814
    endloop
  endfacet
  facet normal -0.97193860685066513 -0.0054037550712216368 0.23517258331769519
    outer loop
      vertex -0.94106441736221313 0.12892700731754303 -0.42675325274467468
      vertex -0.78958004713058472 -0.44773536920547485 0.18606208264827728
      vertex -0.55099618434906006 -0.32238098978996277 1.1749794483184814
    endloop
  endfacet
  facet normal 0.9008367350586225 -0.36473395565686983 0.2355043913811658
    outer loop
      vertex 0.93226301670074463 0.35236218571662903 0.48451098799705505
      vertex 0.29746970534324646 -1.0312645435333252 0.76981133222579956
      vertex 0.79206627607345581 -0.61602038145065308 -0.47898539900779724
    endloop
  endfacet
  facet normal 0.9008368612011598 -0.36473418685498155 0.23550355080227059
    outer loop
      vertex 0.93226301670074463 0.35236218571662903 0.48451098799705505
      vertex 0.25249713659286499 -0.88072866201400757 1.1749794483184814
      vertex 0.29746970534324646 -1.0312645435333252 0.76981133222579956
    endloop
  endfacet
  facet normal 0.90083683518125501 -0.36473365911820599 0.23550446765797201
    outer loop
      vertex 0.93226301670074463 0.35236218571662903 0.48451098799705505
      vertex 0.74791550636291504 0.34287959337234497 1.1749794483184814
      vertex 0.25249713659286499 -0.88072866201400757 1.1749794483184814
    endloop
  endfacet
  facet normal 0.90083398513416624 -0.36474125691022813 0.23550360238188198
    outer loop
      vertex 0.93226301670074463 0.35236218571662903 0.48451098799705505
      vertex 0.92051839828491211 0.42955014109611511 0.64898228645324707
      vertex 0.74791550636291504 0.34287959337234497 1.1749794483184814
    endloop
  endfacet
  facet normal 0.24594973317240146 0.94020528992706964 0.23563264108688287
    outer loop
      vertex 0.74791550636291504 0.34287959337234497 1.1749794483184814
      vertex -0.64455717802047729 0.79759454727172852 0.81404846906661987
      vertex -0.55659401416778564 0.68412822484970093 1.1749794483184814
    endloop
  endfacet
  facet normal 0.24595056295299755 0.94020573472322067 0.23563000016269642
    outer loop
      vertex 0.74791550636291504 0.34287959337234497 1.1749794483184814
      vertex 0.077566683292388916 0.97172677516937256 -0.63452297449111938
      vertex -0.64455717802047729 0.79759454727172852 0.81404846906661987
    endloop
  endfacet
  facet normal 0.2459526208195417 0.94020541527911006 0.23562912679003623
    outer loop
      vertex 0.74791550636291504 0.34287959337234497 1.1749794483184814
      vertex 0.92051839828491211 0.42955014109611511 0.64898228645324707
      vertex 0.077566683292388916 0.97172677516937256 -0.63452297449111938
    endloop
  endfacet
  facet normal 0 -0 1
    outer loop
      vertex 0.74791550636291504 0.34287959337234497 1.1749794483184814
      vertex -0.55099618434906006 -0.32238098978996277 1.1749794483184814
      vertex 0.25249713659286499 -0.88072866201400757 1.1749794483184814
    endloop
  endfacet
  facet normal 0 -0 1
    outer loop
      vertex 0.74791550636291504 0.34287959337234497 1.1749794483184814
      vertex -0.55659401416778564 0.68412822484970093 1.1749794483184814
      vertex -0.55099618434906006 -0.32238098978996277 1.1749794483184814
    endloop
  endfacet
  facet normal -0.55466665466529486 -0.79819913115957841 0.23499584936441947
    outer loop
      vertex 0.25249713659286499 -0.88072866201400757 1.1749794483184814
      vertex -0.38682568073272705 -0.89288973808288574 -0.37533733248710632
      vertex 0.29746970534324646 -1.0312645435333252 0.76981133222579956
    endloop
  endfacet
  facet normal -0.55466754169124588 -0.79819840874244263 0.23499620949118019
    outer loop
      vertex 0.25249713659286499 -0.88072866201400757 1.1749794483184814
      vertex -0.78958004713058472 -0.44773536920547485 0.18606208264827728
      vertex -0.38682568073272705 -0.89288973808288574 -0.37533733248710632
    endloop
  endfacet
  facet normal -0.55466792739274495 -0.79819796369087237 0.23499681079023449
    outer loop
      vertex 0.25249713659286499 -0.88072866201400757 1.1749794483184814
      vertex -0.55099618434906006 -0.32238098978996277 1.1749794483184814
      vertex -0.78958004713058472 -0.44773536920547485 0.18606208264827728
    endloop
  endfacet
  facet normal -0.64760262437685956 0.72459774749764194 -0.23573066245515795
    outer loop
      vertex -0.60171425342559814 0.19079656898975372 -1.1688438653945923
      vertex -0.94106441736221313 0.12892700731754303 -0.42675325274467468
      vertex -0.45920449495315552 0.31816336512565613 -1.1688438653945923
    endloop
  endfacet
  facet normal -0.64760282922211287 0.72459750067005735 -0.2357308584089518
    outer loop
      vertex -0.42342859506607056 0.35013777017593384 -1.1688438653945923
      vertex -0.45920449495315552 0.31816336512565613 -1.1688438653945923
      vertex -0.94106441736221313 0.12892700731754303 -0.42675325274467468
    endloop
  endfacet
  facet normal -0.64760313782204149 0.72459719730293359 -0.23573094311901291
    outer loop
      vertex -0.63998550176620483 0.15659193694591522 -1.1688438653945923
      vertex -0.94106441736221313 0.12892700731754303 -0.42675325274467468
      vertex -0.60171425342559814 0.19079656898975372 -1.1688438653945923
    endloop
  endfacet
  facet normal -0.64760231215709452 0.72459805461113369 -0.23573057617234458
    outer loop
      vertex -0.94106441736221313 0.12892700731754303 -0.42675325274467468
      vertex -0.63998550176620483 0.15659193694591522 -1.1688438653945923
      vertex -0.71441352367401123 0.0900726318359375 -1.1688438653945923
    endloop
  endfacet
  facet normal -0.64760229225432986 0.72459833329829937 -0.23572977420823191
    outer loop
      vertex -0.94106441736221313 0.12892700731754303 -0.42675325274467468
      vertex -0.012759756296873093 0.71716928482055664 -1.1688438653945923
      vertex -0.066857188940048218 0.66882026195526123 -1.1688438653945923
    endloop
  endfacet
  facet normal -0.64760260511471257 0.72459777879151699 -0.23573061918010879
    outer loop
      vertex -0.27842345833778381 0.47973477840423584 -1.1688438653945923
      vertex -0.42342859506607056 0.35013777017593384 -1.1688438653945923
      vertex -0.94106441736221313 0.12892700731754303 -0.42675325274467468
    endloop
  endfacet
  facet normal -0.64760260563748018 0.72459778334197977 -0.2357306037565676
    outer loop
      vertex -0.097642377018928528 0.64130622148513794 -1.1688438653945923
      vertex -0.24514283239841461 0.50947904586791992 -1.1688438653945923
      vertex -0.94106441736221313 0.12892700731754303 -0.42675325274467468
    endloop
  endfacet
  facet normal -0.64760273965267767 0.72459759051070571 -0.23573082831998382
    outer loop
      vertex -0.27842345833778381 0.47973477840423584 -1.1688438653945923
      vertex -0.94106441736221313 0.12892700731754303 -0.42675325274467468
      vertex -0.24514283239841461 0.50947904586791992 -1.1688438653945923
    endloop
  endfacet
  facet normal -0.64760319702308222 0.72459681966697453 -0.2357319412680198
    outer loop
      vertex -0.066857188940048218 0.66882026195526123 -1.1688438653945923
      vertex -0.097642377018928528 0.64130622148513794 -1.1688438653945923
      vertex -0.94106441736221313 0.12892700731754303 -0.42675325274467468
    endloop
  endfacet
  facet normal -0.64760279601610149 0.72459745036349787 -0.23573110426680211
    outer loop
      vertex 0.077566683292388916 0.97172677516937256 -0.63452297449111938
      vertex -0.012759756296873093 0.71716928482055664 -1.1688438653945923
      vertex -0.94106441736221313 0.12892700731754303 -0.42675325274467468
    endloop
  endfacet
  facet normal -0.64760303887271398 0.72459727400275287 -0.23573097919154695
    outer loop
      vertex -0.012759756296873093 0.71716928482055664 -1.1688438653945923
      vertex 0.077566683292388916 0.97172677516937256 -0.63452297449111938
      vertex 0.063306719064712524 0.7851530909538269 -1.1688438653945923
    endloop
  endfacet
  facet normal -0.84946807776835809 -0.47256574920533023 -0.23470321158973481
    outer loop
      vertex -0.38682568073272705 -0.89288973808288574 -0.37533733248710632
      vertex -0.94106441736221313 0.12892700731754303 -0.42675325274467468
      vertex -0.33038127422332764 -0.60025149583816528 -1.1688438653945923
    endloop
  endfacet
  facet normal -0.84946787794025225 -0.4725660587685479 -0.23470331153958243
    outer loop
      vertex -0.30200192332267761 -0.65126520395278931 -1.1688438653945923
      vertex -0.38682568073272705 -0.89288973808288574 -0.37533733248710632
      vertex -0.33038127422332764 -0.60025149583816528 -1.1688438653945923
    endloop
  endfacet
  facet normal -0.84946843234164737 -0.47256516754402328 -0.23470309942374704
    outer loop
      vertex -0.38682568073272705 -0.89288973808288574 -0.37533733248710632
      vertex -0.30200192332267761 -0.65126520395278931 -1.1688438653945923
      vertex -0.2887454628944397 -0.6750946044921875 -1.1688438653945923
    endloop
  endfacet
  facet normal -0.84946811051100901 -0.47256540755360782 -0.23470378098477349
    outer loop
      vertex -0.66153532266616821 -0.0049794916994869709 -1.1688438653945923
      vertex -0.94106441736221313 0.12892700731754303 -0.42675325274467468
      vertex -0.71441352367401123 0.0900726318359375 -1.1688438653945923
    endloop
  endfacet
  facet normal -0.84946787887655029 -0.47256599510980402 -0.23470343632519541
    outer loop
      vertex -0.94106441736221313 0.12892700731754303 -0.42675325274467468
      vertex -0.60171425342559814 -0.11251196265220642 -1.1688438653945923
      vertex -0.57165193557739258 -0.16655091941356659 -1.1688438653945923
    endloop
  endfacet
  facet normal -0.84946823049465958 -0.472565145986729 -0.2347038733783775
    outer loop
      vertex -0.94106441736221313 0.12892700731754303 -0.42675325274467468
      vertex -0.66153532266616821 -0.0049794916994869709 -1.1688438653945923
      vertex -0.60171425342559814 -0.11251196265220642 -1.1688438653945923
    endloop
  endfacet
  facet normal -0.84946830507753335 -0.47256490878744783 -0.23470408102845985
    outer loop
      vertex -0.48176866769790649 -0.3281223475933075 -1.1688438653945923
      vertex -0.94106441736221313 0.12892700731754303 -0.42675325274467468
      vertex -0.57165193557739258 -0.16655091941356659 -1.1688438653945923
    endloop
  endfacet
  facet normal -0.84946826588325208 -0.47256498773404482 -0.23470406392992624
    outer loop
      vertex -0.94106441736221313 0.12892700731754303 -0.42675325274467468
      vertex -0.42342859506607056 -0.43299257755279541 -1.1688438653945923
      vertex -0.39188534021377563 -0.48969376087188721 -1.1688438653945923
    endloop
  endfacet
  facet normal -0.8494681858552513 -0.47256528342918142 -0.23470375820869455
    outer loop
      vertex -0.94106441736221313 0.12892700731754303 -0.42675325274467468
      vertex -0.39188534021377563 -0.48969376087188721 -1.1688438653945923
      vertex -0.33038127422332764 -0.60025149583816528 -1.1688438653945923
    endloop
  endfacet
  facet normal -0.8494681670183154 -0.47256532746639029 -0.23470373771869654
    outer loop
      vertex -0.48176866769790649 -0.3281223475933075 -1.1688438653945923
      vertex -0.42342859506607056 -0.43299257755279541 -1.1688438653945923
      vertex -0.94106441736221313 0.12892700731754303 -0.42675325274467468
    endloop
  endfacet
  facet normal 0.75291637124501121 0.61481545664330572 -0.23477413014156381
    outer loop
      vertex 0.11142857372760773 0.72622191905975342 -1.1688438653945923
      vertex 0.93226301670074463 0.35236218571662903 0.48451098799705505
      vertex 0.18076892197132111 0.64130622148513794 -1.1688438653945923
    endloop
  endfacet
  facet normal 0.75291633550956116 0.61481551018100822 -0.23477410454247394
    outer loop
      vertex 0.93226301670074463 0.35236218571662903 0.48451098799705505
      vertex 0.2897142767906189 0.50788938999176025 -1.1688438653945923
      vertex 0.18076892197132111 0.64130622148513794 -1.1688438653945923
    endloop
  endfacet
  facet normal 0.75291707032344202 0.61481437456894372 -0.23477472189093013
    outer loop
      vertex 0.93226301670074463 0.35236218571662903 0.48451098799705505
      vertex 0.11142857372760773 0.72622191905975342 -1.1688438653945923
      vertex 0.091976664960384369 0.75004321336746216 -1.1688438653945923
    endloop
  endfacet
  facet normal 0.75291648985315329 0.61481529384951361 -0.23477417608404691
    outer loop
      vertex 0.44464045763015747 0.31816336512565613 -1.1688438653945923
      vertex 0.31270474195480347 0.47973477840423584 -1.1688438653945923
      vertex 0.93226301670074463 0.35236218571662903 0.48451098799705505
    endloop
  endfacet
  facet normal 0.75291625790426753 0.61481562070515128 -0.23477406398572687
    outer loop
      vertex 0.2897142767906189 0.50788938999176025 -1.1688438653945923
      vertex 0.93226301670074463 0.35236218571662903 0.48451098799705505
      vertex 0.31270474195480347 0.47973477840423584 -1.1688438653945923
    endloop
  endfacet
  facet normal 0.75291640300345253 0.61481540907861232 -0.23477415285299399
    outer loop
      vertex 0.46799996495246887 0.28955680131912231 -1.1688438653945923
      vertex 0.44464045763015747 0.31816336512565613 -1.1688438653945923
      vertex 0.93226301670074463 0.35236218571662903 0.48451098799705505
    endloop
  endfacet
  facet normal 0.75291634983504885 0.6148154788783885 -0.23477414057473231
    outer loop
      vertex 0.93226301670074463 0.35236218571662903 0.48451098799705505
      vertex 0.54667389392852783 0.19321100413799286 -1.1688438653945923
      vertex 0.46799996495246887 0.28955680131912231 -1.1688438653945923
    endloop
  endfacet
  facet normal 0.75291468309243981 0.61481810384452151 -0.2347726116241797
    outer loop
      vertex 0.091976664960384369 0.75004321336746216 -1.1688438653945923
      vertex 0.088953293859958649 0.7537456750869751 -1.1688438653945923
      vertex 0.93226301670074463 0.35236218571662903 0.48451098799705505
    endloop
  endfacet
  facet normal 0.75291647771665549 0.61481529630570253 -0.23477420857342035
    outer loop
      vertex 0.92051839828491211 0.42955014109611511 0.64898228645324707
      vertex 0.93226301670074463 0.35236218571662903 0.48451098799705505
      vertex 0.088953293859958649 0.7537456750869751 -1.1688438653945923
    endloop
  endfacet
  facet normal 0.7529167305745339 0.6148149166230803 -0.23477439195685232
    outer loop
      vertex 0.088953293859958649 0.7537456750869751 -1.1688438653945923
      vertex 0.077566683292388916 0.97172677516937256 -0.63452297449111938
      vertex 0.92051839828491211 0.42955014109611511 0.64898228645324707
    endloop
  endfacet
  facet normal 0.75291694388803954 0.61481469210629114 -0.23477429581736878
    outer loop
      vertex 0.063306719064712524 0.7851530909538269 -1.1688438653945923
      vertex 0.077566683292388916 0.97172677516937256 -0.63452297449111938
      vertex 0.088953293859958649 0.7537456750869751 -1.1688438653945923
    endloop
  endfacet
  facet normal 0.20248587163656712 -0.95046087603049789 -0.23584654952514805
    outer loop
      vertex 0.11142857372760773 -0.58984178304672241 -1.1688438653945923
      vertex 0.2897142767906189 -0.55185985565185547 -1.1688438653945923
      vertex -0.38682568073272705 -0.89288973808288574 -0.37533733248710632
    endloop
  endfacet
  facet normal 0.20248525321819411 -0.95046087685578662 -0.23584707714044875
    outer loop
      vertex 0.46799996495246887 -0.51387804746627808 -1.1688438653945923
      vertex -0.38682568073272705 -0.89288973808288574 -0.37533733248710632
      vertex 0.2897142767906189 -0.55185985565185547 -1.1688438653945923
    endloop
  endfacet
  facet normal 0.20248648184440937 -0.95046093647302676 -0.23584578204642723
    outer loop
      vertex 0.46799996495246887 -0.51387804746627808 -1.1688438653945923
      vertex 0.52778470516204834 -0.50114148855209351 -1.1688438653945923
      vertex -0.38682568073272705 -0.89288973808288574 -0.37533733248710632
    endloop
  endfacet
  facet normal 0.20248540457294351 -0.95046090491577973 -0.23584683411402521
    outer loop
      vertex -0.17689119279384613 -0.65126520395278931 -1.1688438653945923
      vertex -0.066857188940048218 -0.62782365083694458 -1.1688438653945923
      vertex -0.38682568073272705 -0.89288973808288574 -0.37533733248710632
    endloop
  endfacet
  facet normal 0.20248549042785011 -0.95046089595828276 -0.23584679650224458
    outer loop
      vertex 0.11142857372760773 -0.58984178304672241 -1.1688438653945923
      vertex -0.38682568073272705 -0.89288973808288574 -0.37533733248710632
      vertex -0.066857188940048218 -0.62782365083694458 -1.1688438653945923
    endloop
  endfacet
  facet normal 0.20248597095534407 -0.95046082730097337 -0.23584666063487289
    outer loop
      vertex -0.24514283239841461 -0.66580551862716675 -1.1688438653945923
      vertex -0.17689119279384613 -0.65126520395278931 -1.1688438653945923
      vertex -0.38682568073272705 -0.89288973808288574 -0.37533733248710632
    endloop
  endfacet
  facet normal 0.20248577710543397 -0.95046085784125856 -0.23584670398728755
    outer loop
      vertex -0.38682568073272705 -0.89288973808288574 -0.37533733248710632
      vertex -0.2887454628944397 -0.6750946044921875 -1.1688438653945923
      vertex -0.24514283239841461 -0.66580551862716675 -1.1688438653945923
    endloop
  endfacet
  facet normal 0.20248565568005486 -0.95046084878780479 -0.23584684472212883
    outer loop
      vertex 0.29746970534324646 -1.0312645435333252 0.76981133222579956
      vertex 0.58152002096176147 -0.48969376087188721 -1.1688438653945923
      vertex 0.58750176429748535 -0.48841941356658936 -1.1688438653945923
    endloop
  endfacet
  facet normal 0.20248540476504145 -0.95046086645608974 -0.23584698894129716
    outer loop
      vertex 0.52778470516204834 -0.50114148855209351 -1.1688438653945923
      vertex 0.58152002096176147 -0.48969376087188721 -1.1688438653945923
      vertex -0.38682568073272705 -0.89288973808288574 -0.37533733248710632
    endloop
  endfacet
  facet normal 0.20248550188658135 -0.95046087419890235 -0.23584687435452181
    outer loop
      vertex 0.29746970534324646 -1.0312645435333252 0.76981133222579956
      vertex -0.38682568073272705 -0.89288973808288574 -0.37533733248710632
      vertex 0.58152002096176147 -0.48969376087188721 -1.1688438653945923
    endloop
  endfacet
  facet normal 0.20248515047816454 -0.95046093188716663 -0.23584694357149028
    outer loop
      vertex 0.58750176429748535 -0.48841941356658936 -1.1688438653945923
      vertex 0.79206627607345581 -0.61602038145065308 -0.47898539900779724
      vertex 0.29746970534324646 -1.0312645435333252 0.76981133222579956
    endloop
  endfacet
  facet normal 0.20248417077133016 -0.95046120036756054 -0.2358467027178946
    outer loop
      vertex 0.61195337772369385 -0.48321029543876648 -1.1688438653945923
      vertex 0.79206627607345581 -0.61602038145065308 -0.47898539900779724
      vertex 0.58750176429748535 -0.48841941356658936 -1.1688438653945923
    endloop
  endfacet
  facet normal 0.96758523825802412 0.093380886937868293 -0.2346461520244037
    outer loop
      vertex 0.79206627607345581 -0.61602038145065308 -0.47898539900779724
      vertex 0.60808271169662476 -0.44310334324836731 -1.1688438653945923
      vertex 0.93226301670074463 0.35236218571662903 0.48451098799705505
    endloop
  endfacet
  facet normal 0.96758525781929705 0.093380303942182122 -0.23464630337260792
    outer loop
      vertex 0.61195337772369385 -0.48321029543876648 -1.1688438653945923
      vertex 0.60808271169662476 -0.44310334324836731 -1.1688438653945923
      vertex 0.79206627607345581 -0.61602038145065308 -0.47898539900779724
    endloop
  endfacet
  facet normal 0.96758565402515029 0.093378843923833499 -0.23464525060646366
    outer loop
      vertex 0.93226301670074463 0.35236218571662903 0.48451098799705505
      vertex 0.60808271169662476 -0.44310334324836731 -1.1688438653945923
      vertex 0.59698623418807983 -0.3281223475933075 -1.1688438653945923
    endloop
  endfacet
  facet normal 0.96758562050589292 0.093379023060516181 -0.23464531753795931
    outer loop
      vertex 0.59698623418807983 -0.3281223475933075 -1.1688438653945923
      vertex 0.58139342069625854 -0.16655091941356659 -1.1688438653945923
      vertex 0.93226301670074463 0.35236218571662903 0.48451098799705505
    endloop
  endfacet
  facet normal 0.96758559395482779 0.093379382080349002 -0.2346452841490215
    outer loop
      vertex 0.93226301670074463 0.35236218571662903 0.48451098799705505
      vertex 0.55020791292190552 0.15659193694591522 -1.1688438653945923
      vertex 0.54667389392852783 0.19321100413799286 -1.1688438653945923
    endloop
  endfacet
  facet normal 0.9675856782235972 0.093378671413552883 -0.23464521947318873
    outer loop
      vertex 0.56580066680908203 -0.0049794916994869709 -1.1688438653945923
      vertex 0.55020791292190552 0.15659193694591522 -1.1688438653945923
      vertex 0.93226301670074463 0.35236218571662903 0.48451098799705505
    endloop
  endfacet
  facet normal 0.96758567814855356 0.093378671944559705 -0.23464521957132264
    outer loop
      vertex 0.58139342069625854 -0.16655091941356659 -1.1688438653945923
      vertex 0.56580066680908203 -0.0049794916994869709 -1.1688438653945923
      vertex 0.93226301670074463 0.35236218571662903 0.48451098799705505
    endloop
  endfacet
  facet normal -0 0 -1
    outer loop
      vertex 0.58750176429748535 -0.48841941356658936 -1.1688438653945923
      vertex 0.60808271169662476 -0.44310334324836731 -1.1688438653945923
      vertex 0.61195337772369385 -0.48321029543876648 -1.1688438653945923
    endloop
  endfacet
  facet normal 0 0 -1
    outer loop
      vertex 0.58152002096176147 -0.48969376087188721 -1.1688438653945923
      vertex 0.60808271169662476 -0.44310334324836731 -1.1688438653945923
      vertex 0.58750176429748535 -0.48841941356658936 -1.1688438653945923
    endloop
  endfacet
  facet normal 0 0 -1
    outer loop
      vertex 0.31270474195480347 0.47973477840423584 -1.1688438653945923
      vertex 0.2897142767906189 0.47973477840423584 -1.1688438653945923
      vertex 0.2897142767906189 0.50788938999176025 -1.1688438653945923
    endloop
  endfacet
  facet normal -0 0 -1
    outer loop
      vertex -0.066857188940048218 0.66882026195526123 -1.1688438653945923
      vertex -0.012759756296873093 0.71716928482055664 -1.1688438653945923
      vertex -0.066857188940048218 0.64130622148513794 -1.1688438653945923
    endloop
  endfacet
  facet normal 0 0 -1
    outer loop
      vertex -0.097642377018928528 0.64130622148513794 -1.1688438653945923
      vertex -0.066857188940048218 0.66882026195526123 -1.1688438653945923
      vertex -0.066857188940048218 0.64130622148513794 -1.1688438653945923
    endloop
  endfacet
  facet normal 0 0 -1
    outer loop
      vertex -0.24514283239841461 -0.65126520395278931 -1.1688438653945923
      vertex -0.17689119279384613 -0.65126520395278931 -1.1688438653945923
      vertex -0.24514283239841461 -0.66580551862716675 -1.1688438653945923
    endloop
  endfacet
  facet normal 0 0 -1
    outer loop
      vertex -0.2887454628944397 -0.6750946044921875 -1.1688438653945923
      vertex -0.24514283239841461 -0.65126520395278931 -1.1688438653945923
      vertex -0.24514283239841461 -0.66580551862716675 -1.1688438653945923
    endloop
  endfacet
  facet normal 0 0 -1
    outer loop
      vertex -0.30200192332267761 -0.65126520395278931 -1.1688438653945923
      vertex -0.24514283239841461 -0.65126520395278931 -1.1688438653945923
      vertex -0.2887454628944397 -0.6750946044921875 -1.1688438653945923
    endloop
  endfacet
endsolid OBJECT
